<?xml version="1.0" standalone="no"?>
<!DOCTYPE svg PUBLIC "-//W3C//DTD SVG 20010904//EN"
 "http://www.w3.org/TR/2001/REC-SVG-20010904/DTD/svg10.dtd">
<svg version="1.0" xmlns="http://www.w3.org/2000/svg"
 width="830.000000pt" height="1280.000000pt" viewBox="0 0 830.000000 1280.000000"
 preserveAspectRatio="xMidYMid meet">
<metadata>
Created by potrace 1.15, written by Peter Selinger 2001-2017
</metadata>
<g transform="translate(0.000000,1280.000000) scale(0.100000,-0.100000)"
fill="#f97316" stroke="none">
<path d="M5750 9510 c-11 -11 -26 -19 -32 -17 -7 1 -21 -14 -31 -35 -16 -32
-16 -41 -5 -78 7 -23 28 -60 47 -81 18 -22 41 -66 50 -97 12 -40 23 -58 36
-61 16 -3 17 -1 7 11 -6 8 -19 34 -27 58 -12 35 -13 45 -3 51 10 7 10 11 0 21
-18 18 -15 46 8 58 25 13 17 30 -14 30 -12 0 -34 12 -48 28 -25 25 -26 29 -13
59 8 18 29 42 47 53 22 13 27 20 16 20 -10 0 -27 -9 -38 -20z m-20 -130 c0 -5
-2 -10 -4 -10 -3 0 -8 5 -11 10 -3 6 -1 10 4 10 6 0 11 -4 11 -10z m10 -41 c0
-11 -4 -17 -10 -14 -5 3 -10 13 -10 21 0 8 5 14 10 14 6 0 10 -9 10 -21z"/>
<path d="M5827 9508 c28 -13 35 -33 35 -104 0 -35 4 -51 9 -42 24 37 -1 138
-36 152 -27 10 -32 6 -8 -6z"/>
<path d="M6383 9453 c-15 -6 -17 -69 -3 -78 5 -3 7 0 4 9 -10 25 15 59 39 52
21 -5 21 -5 3 9 -21 16 -24 16 -43 8z"/>
<path d="M4833 9388 c-15 -20 -30 -71 -25 -90 5 -25 20 -22 24 5 3 19 8 22 41
20 20 -1 37 2 37 7 0 18 31 10 55 -15 30 -29 32 -21 5 22 -14 24 -32 36 -71
47 -63 19 -55 19 -66 4z"/>
<path d="M6406 9334 c-8 -21 19 -64 40 -64 10 0 6 8 -13 25 -27 24 -28 25 -9
40 16 12 17 15 4 15 -9 0 -19 -7 -22 -16z"/>
<path d="M8026 9285 c-6 -17 5 -20 20 -6 5 5 20 11 34 14 19 3 16 5 -11 6 -25
1 -39 -4 -43 -14z"/>
<path d="M4948 9253 c0 -10 0 -29 1 -41 1 -13 -3 -30 -9 -37 -15 -18 21 -26
45 -9 16 12 16 14 1 29 -9 9 -16 27 -16 40 0 28 -19 44 -22 18z"/>
<path d="M4890 9230 c13 -23 20 -26 20 -6 0 8 -7 16 -15 20 -13 4 -14 2 -5
-14z"/>
<path d="M6120 9220 c0 -5 4 -10 9 -10 6 0 13 5 16 10 3 6 -1 10 -9 10 -9 0
-16 -4 -16 -10z"/>
<path d="M8040 9209 c0 -12 38 -31 44 -21 2 4 -7 12 -20 19 -13 6 -24 7 -24 2z"/>
<path d="M1514 9186 c-7 -28 1 -46 19 -45 9 0 9 2 0 6 -19 7 -16 34 5 49 16
13 16 13 0 14 -10 0 -20 -10 -24 -24z"/>
<path d="M6008 9168 c-30 -33 -36 -44 -24 -46 9 -2 16 -13 16 -25 0 -12 3 -31
5 -42 9 -34 -6 -45 -48 -35 -30 6 -40 5 -44 -6 -3 -8 -9 -14 -14 -14 -6 0 -6
7 0 18 8 15 4 17 -25 17 -19 0 -34 -3 -34 -7 0 -14 58 -47 76 -42 21 5 65 -49
79 -96 4 -14 13 -32 20 -40 7 -8 15 -24 18 -35 3 -12 5 -5 6 16 1 24 -4 39
-14 43 -23 9 -19 74 8 113 26 39 42 43 33 8 -4 -17 -1 -31 9 -42 9 -9 13 -23
10 -32 -15 -36 -14 -71 0 -71 8 0 15 9 15 20 0 36 26 84 74 135 53 56 104 135
87 135 -6 0 -11 -7 -11 -15 0 -8 -9 -15 -19 -15 -12 0 -21 -9 -25 -25 -9 -36
-45 -51 -87 -36 -17 6 -45 11 -61 11 l-29 0 4 60 c2 32 10 66 17 75 28 34 -6
12 -42 -27z m6 -189 c-12 -13 -20 -16 -22 -9 -3 7 2 16 9 21 25 16 32 9 13
-12z"/>
<path d="M5840 9120 c0 -5 7 -10 16 -10 8 0 12 5 9 10 -3 6 -10 10 -16 10 -5
0 -9 -4 -9 -10z"/>
<path d="M1476 9087 c-13 -46 20 -72 58 -44 16 12 15 13 -10 12 -24 0 -30 5
-35 30 l-6 30 -7 -28z"/>
<path d="M4960 9099 c0 -28 31 -108 48 -121 13 -11 15 -11 9 4 -3 9 -9 34 -13
54 -7 40 -44 92 -44 63z"/>
<path d="M5811 9100 c0 -8 4 -24 9 -35 5 -13 9 -14 9 -5 0 8 -4 24 -9 35 -5
13 -9 14 -9 5z"/>
<path d="M2347 9083 c-12 -11 -8 -48 6 -68 13 -16 14 -15 9 15 -5 37 12 54 40
39 11 -6 18 -6 18 0 0 17 -59 29 -73 14z"/>
<path d="M5010 9080 c0 -5 5 -10 10 -10 6 0 10 5 10 10 0 6 -4 10 -10 10 -5 0
-10 -4 -10 -10z"/>
<path d="M2627 9022 c-11 -17 18 -62 40 -62 14 0 14 3 -4 15 -12 8 -23 25 -25
38 -2 16 -5 18 -11 9z"/>
<path d="M7397 8926 c4 -17 -3 -29 -22 -45 -19 -14 -23 -21 -12 -21 30 0 62
70 38 84 -4 3 -6 -5 -4 -18z"/>
<path d="M5723 8868 c-12 -13 -24 -40 -28 -60 -6 -32 -4 -38 9 -38 10 0 15 -4
11 -9 -9 -16 12 -22 39 -11 30 11 35 30 7 30 -33 0 -52 27 -40 58 13 34 28 43
50 29 10 -6 22 -8 26 -4 9 10 -15 27 -38 27 -8 0 -25 -10 -36 -22z"/>
<path d="M4943 8833 c-14 -15 -18 -23 -9 -23 16 0 39 26 34 37 -1 4 -13 -2
-25 -14z"/>
<path d="M7055 8838 c-37 -10 -140 -75 -192 -121 -13 -11 -23 -31 -23 -43 0
-13 -10 -30 -22 -38 l-22 -16 21 0 c12 0 25 5 28 10 3 6 15 10 26 10 26 0 26
-40 0 -47 -11 -3 -21 -12 -23 -21 -3 -14 -5 -14 -19 1 -9 9 -25 14 -37 11 -11
-3 -23 -1 -26 5 -10 16 -54 13 -106 -7 -35 -14 -45 -23 -46 -41 -1 -23 -19
-41 -41 -41 -18 0 -16 10 5 34 17 21 17 21 -3 5 -11 -9 -30 -22 -42 -28 -20
-10 -22 -9 -16 6 5 15 -19 -4 -97 -75 -3 -2 5 -2 16 2 15 5 24 2 28 -10 9 -23
-52 -87 -76 -81 -9 3 -25 -4 -34 -14 -22 -24 -46 -25 -37 -1 6 15 5 15 -10 3
-21 -17 -21 -30 -1 -52 14 -16 14 -19 -5 -38 -12 -12 -21 -26 -21 -32 0 -14
88 60 158 134 30 31 63 57 73 57 24 0 69 21 69 32 0 5 -11 6 -25 2 -18 -4 -25
-2 -25 9 0 19 26 41 40 32 6 -4 18 -1 26 6 11 9 18 9 26 1 7 -7 41 -12 78 -12
52 0 71 4 83 18 21 23 13 33 -22 26 -53 -11 -111 35 -66 52 15 6 74 -13 85
-26 3 -4 91 -4 195 0 242 8 258 15 280 127 10 50 -3 55 -38 17 -30 -33 -34
-35 -62 -23 -17 7 -34 11 -40 9 -5 -2 -32 -4 -59 -4 -45 -1 -51 -4 -56 -26 -5
-22 -11 -25 -47 -25 -23 0 -39 3 -36 8 2 4 -2 7 -9 7 -24 1 46 50 87 61 35 10
38 12 22 23 -19 15 -13 26 14 26 10 0 32 20 50 45 23 32 38 44 48 39 9 -3 25
-9 36 -12 11 -2 29 -12 40 -21 19 -15 19 -15 5 3 -17 22 -71 47 -97 45 -10 -1
-36 -6 -58 -11z m-325 -338 c0 -5 -2 -10 -4 -10 -3 0 -8 5 -11 10 -3 6 -1 10
4 10 6 0 11 -4 11 -10z"/>
<path d="M5760 8829 c0 -5 5 -7 10 -4 6 3 10 8 10 11 0 2 -4 4 -10 4 -5 0 -10
-5 -10 -11z"/>
<path d="M3520 8811 c0 -9 -10 -12 -29 -9 -17 2 -28 1 -25 -4 7 -12 52 -10 59
3 4 6 4 13 1 16 -3 4 -6 1 -6 -6z"/>
<path d="M5142 8807 c-10 -12 -11 -23 -4 -44 6 -15 11 -22 11 -15 1 6 6 12 12
12 6 0 9 -7 5 -15 -3 -10 1 -16 14 -16 11 -1 25 -2 32 -3 6 -1 13 5 16 12 2 8
-2 10 -13 6 -20 -8 -52 24 -57 56 -3 21 -4 22 -16 7z"/>
<path d="M2650 8772 c-26 -13 -35 -23 -35 -42 0 -21 4 -25 25 -23 62 5 99 5
109 -1 20 -13 12 -62 -13 -86 -25 -22 -44 -23 -91 -4 -18 7 -18 6 -6 -9 26
-33 108 -15 131 28 15 28 9 117 -10 140 -17 20 -67 19 -110 -3z"/>
<path d="M6046 8765 c8 -37 14 -45 14 -19 0 10 -5 26 -10 34 -8 11 -9 7 -4
-15z"/>
<path d="M3497 8752 c-33 -36 -8 -92 40 -92 25 0 47 25 37 41 -5 8 -13 4 -25
-12 -15 -20 -21 -22 -36 -13 -29 18 -27 49 3 73 17 13 21 21 12 21 -8 0 -22
-8 -31 -18z"/>
<path d="M5660 8725 c-7 -9 -8 -15 -2 -15 5 0 12 7 16 15 3 8 4 15 2 15 -2 0
-9 -7 -16 -15z"/>
<path d="M3040 8661 c0 -5 12 -11 27 -14 26 -5 26 -4 8 9 -22 16 -35 18 -35 5z"/>
<path d="M3233 8611 c29 -32 38 -49 34 -68 -4 -22 -3 -23 10 -10 20 20 1 61
-47 96 l-35 26 38 -44z"/>
<path d="M3131 8619 c-14 -11 -21 -23 -15 -27 5 -4 20 -29 33 -57 13 -27 26
-44 28 -37 3 6 12 12 20 12 12 0 9 6 -10 23 -19 16 -27 34 -29 64 l-3 41 -24
-19z"/>
<path d="M5340 8627 c0 -4 9 -16 20 -27 11 -11 20 -16 20 -12 0 5 -9 17 -20
27 -11 10 -20 15 -20 12z"/>
<path d="M6062 8585 c0 -16 2 -22 5 -12 2 9 2 23 0 30 -3 6 -5 -1 -5 -18z"/>
<path d="M5405 8560 c3 -5 11 -10 16 -10 6 0 7 5 4 10 -3 6 -11 10 -16 10 -6
0 -7 -4 -4 -10z"/>
<path d="M3025 8530 c-3 -5 -1 -10 4 -10 6 0 11 5 11 10 0 6 -2 10 -4 10 -3 0
-8 -4 -11 -10z"/>
<path d="M6070 8511 c0 -11 10 -30 23 -43 12 -13 16 -16 8 -6 -8 10 -11 27 -7
43 5 18 2 25 -9 25 -8 0 -15 -9 -15 -19z"/>
<path d="M5430 8504 c0 -14 3 -14 15 -4 8 7 15 14 15 16 0 2 -7 4 -15 4 -8 0
-15 -7 -15 -16z"/>
<path d="M2920 8476 c0 -31 27 -59 49 -51 9 3 5 -3 -9 -14 -14 -11 -21 -23
-17 -27 4 -4 16 1 27 11 41 37 96 -24 58 -64 -11 -10 -9 -12 7 -9 14 2 20 11
20 28 0 14 4 28 9 31 5 4 -3 14 -18 23 -14 9 -37 23 -51 31 -14 9 -23 20 -20
24 4 8 -36 41 -50 41 -3 0 -5 -11 -5 -24z"/>
<path d="M4789 8473 c-13 -16 -12 -17 4 -4 9 7 17 15 17 17 0 8 -8 3 -21 -13z"/>
<path d="M4470 8405 c-8 -9 -8 -15 -2 -15 12 0 26 19 19 26 -2 2 -10 -2 -17
-11z"/>
<path d="M6425 8410 c-3 -5 -1 -10 4 -10 6 0 11 5 11 10 0 6 -2 10 -4 10 -3 0
-8 -4 -11 -10z"/>
<path d="M2650 8371 c0 -22 5 -43 10 -46 18 -11 11 -54 -10 -65 -16 -8 -28 -8
-50 4 -34 16 -39 8 -12 -17 10 -10 32 -17 49 -17 25 0 34 -6 47 -35 9 -19 22
-37 28 -41 6 -4 0 14 -15 39 -22 40 -24 52 -16 76 7 21 7 36 0 50 -6 11 -11
33 -11 50 0 16 -4 33 -10 36 -6 4 -10 -10 -10 -34z"/>
<path d="M4577 8393 c-14 -13 -6 -18 26 -18 25 0 32 -4 30 -18 -1 -12 4 -17
14 -13 8 3 17 6 20 6 3 0 -6 11 -21 25 -26 24 -56 32 -69 18z"/>
<path d="M5400 8390 c0 -5 5 -10 10 -10 6 0 10 5 10 10 0 6 -4 10 -10 10 -5 0
-10 -4 -10 -10z"/>
<path d="M6370 8379 c0 -5 5 -7 10 -4 6 3 10 8 10 11 0 2 -4 4 -10 4 -5 0 -10
-5 -10 -11z"/>
<path d="M6167 8341 c4 -17 8 -18 24 -8 18 11 18 12 1 19 -27 11 -30 9 -25
-11z"/>
<path d="M3727 8344 c-4 -4 -7 -16 -7 -26 0 -18 1 -18 16 -3 11 10 13 20 7 26
-5 5 -12 6 -16 3z"/>
<path d="M2953 8315 c-18 -20 -16 -25 7 -25 11 0 20 -6 20 -12 0 -7 7 -4 16 7
13 18 13 21 -3 32 -21 16 -25 16 -40 -2z"/>
<path d="M4646 8309 c-14 -9 -16 -13 -5 -20 8 -4 19 -3 27 3 10 8 17 7 29 -5
14 -13 14 -19 3 -32 -9 -11 -16 -13 -24 -5 -16 16 -46 13 -40 -5 6 -16 54 -19
86 -7 16 7 16 10 2 37 -23 45 -43 54 -78 34z"/>
<path d="M3799 8273 c-13 -16 -12 -17 4 -4 16 13 21 21 13 21 -2 0 -10 -8 -17
-17z"/>
<path d="M6199 8272 c-13 -10 -43 -36 -65 -59 -23 -24 -51 -43 -62 -43 -11 0
-22 -4 -24 -9 -1 -5 -20 -28 -41 -51 -29 -31 -42 -39 -50 -31 -15 15 -27 14
-27 -3 0 -7 9 -16 20 -19 15 -4 18 -10 13 -24 -11 -32 -87 -93 -128 -104 -83
-22 -105 -32 -94 -45 7 -8 1 -19 -21 -38 -37 -31 -28 -34 18 -6 39 24 46 24
65 6 24 -24 87 -1 143 52 67 63 97 82 123 75 12 -3 21 -1 21 6 0 6 7 11 15 11
9 0 26 10 39 23 13 13 37 29 54 36 17 7 33 19 36 27 7 18 3 18 -40 -6 -20 -12
-38 -19 -41 -16 -7 7 17 46 29 46 7 0 7 4 0 13 -5 6 -8 30 -7 52 2 22 0 45 -6
51 -13 16 27 52 42 37 8 -8 8 -13 0 -17 -13 -9 -15 -66 -2 -66 5 0 7 9 4 20
-3 12 0 20 7 20 8 0 11 11 8 30 -3 23 -1 30 9 26 7 -3 13 -1 13 3 0 18 -28 19
-51 3z m-52 -119 c-5 -12 -16 -23 -23 -23 -17 0 -11 49 7 60 20 13 29 -9 16
-37z m-27 -63 c0 -14 -7 -20 -22 -20 -20 0 -21 1 -3 20 10 11 20 20 22 20 1 0
3 -9 3 -20z m16 -66 c-4 -12 -10 -14 -17 -7 -5 5 -7 17 -3 27 4 12 10 14 17 7
5 -5 7 -17 3 -27z"/>
<path d="M2937 8260 c10 -11 22 -20 27 -20 5 0 1 9 -9 20 -10 11 -22 20 -26
20 -5 0 -1 -9 8 -20z"/>
<path d="M3735 8270 c3 -5 14 -10 23 -10 15 0 15 2 2 10 -20 13 -33 13 -25 0z"/>
<path d="M4546 8241 c-3 -5 5 -11 19 -13 17 -4 25 -1 25 8 0 15 -36 19 -44 5z"/>
<path d="M2820 8220 c0 -25 16 -50 32 -50 14 0 8 24 -12 50 l-20 25 0 -25z"/>
<path d="M2930 8215 c-7 -9 -11 -17 -9 -20 3 -2 10 5 17 15 14 24 10 26 -8 5z"/>
<path d="M6237 8213 c-3 -5 -1 -17 4 -28 4 -11 8 -14 8 -7 1 6 8 12 17 12 14
0 14 2 0 15 -16 17 -23 18 -29 8z"/>
<path d="M5529 8154 c-12 -15 -11 -19 9 -32 12 -8 22 -21 22 -28 0 -8 5 -14
11 -14 6 0 1 16 -11 37 -17 29 -18 38 -8 44 8 6 9 9 2 9 -6 0 -18 -7 -25 -16z"/>
<path d="M3338 8153 c7 -3 16 -2 19 1 4 3 -2 6 -13 5 -11 0 -14 -3 -6 -6z"/>
<path d="M4570 8150 c-8 -5 -10 -10 -5 -10 6 0 17 5 25 10 8 5 11 10 5 10 -5
0 -17 -5 -25 -10z"/>
<path d="M5331 8133 c-10 -26 -10 -27 4 -9 8 11 15 23 15 28 0 15 -7 8 -19
-19z"/>
<path d="M4695 8140 c-3 -5 1 -10 9 -10 9 0 16 5 16 10 0 6 -4 10 -9 10 -6 0
-13 -4 -16 -10z"/>
<path d="M5904 8140 c-24 -9 -41 -30 -26 -30 6 0 20 9 33 20 26 21 25 23 -7
10z"/>
<path d="M6250 8125 c-7 -9 -10 -18 -7 -21 3 -3 10 4 17 15 13 25 8 27 -10 6z"/>
<path d="M5114 8095 c-10 -8 -28 -15 -39 -15 -70 -1 -54 -90 22 -119 30 -12
86 -6 65 8 -5 3 -11 15 -13 25 -4 19 -5 19 -22 2 -9 -10 -25 -16 -35 -14 -28
5 -25 41 9 81 26 32 37 38 60 35 16 -3 29 -1 29 4 0 14 -55 9 -76 -7z"/>
<path d="M5466 8060 c-32 -21 -47 -40 -40 -52 3 -5 15 3 26 17 15 20 23 23 38
15 23 -12 34 2 17 22 -11 14 -15 14 -41 -2z"/>
<path d="M2710 8064 c1 -17 50 -70 50 -53 0 8 -11 26 -25 39 -14 13 -25 19
-25 14z"/>
<path d="M4751 8036 c-6 -14 -18 -26 -27 -26 -10 0 -15 -3 -11 -6 11 -12 45 7
51 28 8 32 -2 35 -13 4z"/>
<path d="M2830 8020 c6 -11 9 -24 7 -28 -3 -4 4 -16 14 -26 23 -24 26 -1 4 27
-7 11 -11 25 -8 33 3 8 -1 14 -11 14 -14 0 -15 -4 -6 -20z"/>
<path d="M6202 7990 c-11 -23 -14 -36 -7 -30 12 10 38 70 31 70 -2 0 -13 -18
-24 -40z"/>
<path d="M2760 7970 c-19 -35 -5 -70 29 -70 32 0 81 -40 81 -66 0 -9 14 -32
30 -51 17 -18 30 -41 30 -51 0 -12 3 -13 8 -4 6 8 12 1 21 -22 10 -25 18 -32
32 -29 21 6 28 -22 7 -29 -8 -3 -9 -11 -3 -24 8 -18 9 -18 12 4 5 23 19 30 25
10 3 -8 12 -9 35 -1 24 9 40 8 70 -2 21 -8 49 -14 63 -13 14 0 4 5 -22 10 -31
7 -48 15 -48 25 0 8 -4 12 -9 9 -5 -3 -23 -3 -40 0 -27 6 -30 9 -24 33 6 26 6
26 -16 7 -18 -16 -25 -17 -47 -7 -23 10 -25 16 -20 46 5 27 3 36 -12 44 -10 5
-28 8 -39 5 -11 -3 -25 1 -32 9 -17 21 0 82 22 81 16 -2 25 25 10 27 -5 0 -21
2 -37 3 -16 1 -31 7 -34 14 -2 7 -9 12 -15 12 -6 0 -23 12 -38 26 l-27 26 -12
-22z"/>
<path d="M1841 7960 c-1 -29 15 -50 39 -50 11 0 10 5 -7 18 -11 9 -23 26 -26
37 -4 16 -5 15 -6 -5z"/>
<path d="M3694 7902 c-32 -69 -34 -92 -5 -92 9 0 22 -9 29 -21 12 -18 11 -24
-9 -45 -12 -13 -30 -24 -38 -24 -9 0 -23 -5 -31 -10 -22 -15 49 0 82 16 15 8
34 14 42 14 21 0 76 58 76 79 0 10 5 22 11 28 9 9 5 20 -18 46 l-29 34 3 -51
c5 -70 -4 -82 -51 -62 -20 8 -36 20 -36 25 0 6 -7 11 -16 11 -12 0 -14 4 -7
13 5 6 15 31 23 54 12 38 16 42 38 36 17 -4 23 -2 18 6 -4 6 -17 11 -29 11
-17 0 -29 -15 -53 -68z"/>
<path d="M2940 7946 c0 -9 5 -16 10 -16 6 0 10 4 10 9 0 6 -4 13 -10 16 -5 3
-10 -1 -10 -9z"/>
<path d="M6080 7930 c0 -17 3 -18 26 -8 23 11 24 13 7 19 -29 12 -33 10 -33
-11z"/>
<path d="M5155 7930 c-3 -5 3 -10 14 -10 12 0 21 5 21 10 0 6 -6 10 -14 10 -8
0 -18 -4 -21 -10z"/>
<path d="M5115 7920 c-3 -5 -1 -10 4 -10 6 0 11 5 11 10 0 6 -2 10 -4 10 -3 0
-8 -4 -11 -10z"/>
<path d="M6006 7898 c-18 -20 -18 -21 0 -13 11 4 27 10 36 12 10 3 15 9 12 14
-9 15 -29 10 -48 -13z"/>
<path d="M2234 7898 c2 -7 15 -13 31 -13 16 0 29 6 31 13 1 7 0 8 -3 2 -2 -5
-15 -10 -28 -10 -13 0 -26 5 -28 10 -3 6 -4 5 -3 -2z"/>
<path d="M5650 7856 c-6 -8 -27 -20 -46 -26 -32 -11 -47 -30 -22 -30 6 0 3 -9
-7 -20 -24 -26 -5 -26 39 1 43 25 46 33 9 25 l-28 -6 22 17 c12 10 33 26 45
35 13 9 18 17 12 18 -6 0 -17 -7 -24 -14z"/>
<path d="M2230 7851 c0 -5 11 -12 24 -15 27 -7 40 -33 30 -60 -7 -18 -35 -21
-51 -5 -6 6 -17 8 -24 4 -9 -6 -7 -11 6 -22 30 -21 54 -15 74 18 23 38 18 55
-20 74 -33 17 -39 18 -39 6z"/>
<path d="M3960 7850 c0 -5 6 -10 14 -10 8 0 18 5 21 10 3 6 -3 10 -14 10 -12
0 -21 -4 -21 -10z"/>
<path d="M5930 7846 c-6 -8 -32 -23 -56 -32 -24 -9 -43 -19 -40 -21 6 -7 75
24 103 47 14 11 21 20 16 20 -6 0 -16 -7 -23 -14z"/>
<path d="M4411 7813 c-34 -42 -38 -53 -17 -53 8 0 23 -13 33 -30 9 -16 22 -30
28 -31 5 -1 28 -2 50 -3 22 -2 56 -5 75 -9 34 -6 34 -6 -5 8 -22 7 -57 14 -77
14 -46 1 -50 17 -7 26 39 9 32 29 -10 32 -46 2 -58 16 -41 48 22 40 5 39 -29
-2z"/>
<path d="M2716 7824 c-17 -12 -17 -14 -4 -14 9 0 20 5 23 11 11 17 2 18 -19 3z"/>
<path d="M4534 7815 c0 -14 4 -25 9 -25 10 0 9 38 -2 44 -5 3 -8 -5 -7 -19z"/>
<path d="M3045 7810 c4 -6 11 -8 16 -5 14 9 11 15 -7 15 -8 0 -12 -5 -9 -10z"/>
<path d="M5427 7808 c-16 -5 -26 -15 -23 -21 4 -7 9 -20 12 -29 4 -10 15 -18
26 -18 10 0 16 -4 13 -10 -3 -6 1 -7 10 -3 12 4 13 8 5 13 -20 12 7 50 35 50
36 0 39 17 4 24 -39 8 -47 7 -82 -6z"/>
<path d="M7295 7768 c-51 -44 -95 -112 -102 -156 -3 -20 -12 -50 -20 -67 -13
-28 -13 -29 2 -10 9 11 20 19 25 18 5 -2 26 5 47 14 65 27 145 42 166 31 27
-14 44 -4 52 31 3 16 13 35 21 42 18 15 18 26 -1 26 -8 0 -15 -6 -15 -13 0
-22 -18 -25 -49 -10 -40 21 -71 63 -71 97 0 37 -11 36 -55 -3z m15 -39 c14
-25 5 -69 -14 -69 -8 0 -16 -6 -19 -12 -2 -7 -8 -1 -12 15 -7 28 10 87 26 87
5 0 13 -9 19 -21z m-70 -103 c0 -3 -4 -8 -10 -11 -5 -3 -10 -1 -10 4 0 6 5 11
10 11 6 0 10 -2 10 -4z"/>
<path d="M2551 7755 c-31 -35 -42 -87 -21 -100 5 -3 9 9 8 29 -1 24 7 46 26
70 35 46 27 46 -13 1z"/>
<path d="M3454 7779 c-17 -5 -37 -16 -44 -24 -17 -20 -4 -18 55 10 51 24 45
31 -11 14z"/>
<path d="M4030 7775 c-14 -8 -37 -12 -52 -9 -16 3 -42 3 -59 -1 -26 -6 -29 -9
-18 -20 11 -11 25 -11 67 -3 46 10 58 8 95 -10 23 -11 53 -23 67 -26 18 -5 15
-1 -10 11 -19 10 -37 19 -39 20 -2 1 2 9 9 18 7 9 11 17 9 19 -14 13 -48 13
-69 1z"/>
<path d="M4820 7775 l-25 -14 31 -1 c21 0 31 5 31 15 0 18 -5 18 -37 0z"/>
<path d="M2637 7746 c3 -23 0 -42 -11 -57 -21 -30 -20 -36 3 -42 15 -4 20 4
30 49 7 30 18 54 24 54 16 1 -23 30 -39 30 -9 0 -11 -11 -7 -34z"/>
<path d="M3086 7765 c4 -8 10 -15 15 -15 4 0 6 7 3 15 -4 8 -10 15 -15 15 -4
0 -6 -7 -3 -15z"/>
<path d="M4557 7759 c-5 -17 -3 -18 11 -7 9 7 18 13 20 14 2 1 -4 4 -12 7 -8
3 -16 -2 -19 -14z"/>
<path d="M5271 7766 c-21 -11 -21 -14 -6 -20 10 -3 23 -1 31 5 7 5 25 14 41
19 28 8 28 8 -7 9 -19 0 -46 -6 -59 -13z"/>
<path d="M7853 7773 c-14 -5 -18 -69 -5 -76 4 -3 7 9 7 26 0 29 3 32 28 32 26
-1 27 0 11 12 -19 14 -22 14 -41 6z"/>
<path d="M3063 7735 c6 -19 14 -35 19 -35 10 0 10 1 -3 39 -15 43 -30 40 -16
-4z"/>
<path d="M4242 7740 c-7 -11 -9 -20 -4 -20 4 0 13 9 20 20 7 11 9 20 4 20 -4
0 -13 -9 -20 -20z"/>
<path d="M4940 7740 c-14 -11 -36 -20 -50 -21 -18 -1 -20 -3 -7 -6 24 -6 74
14 81 33 7 18 6 18 -24 -6z"/>
<path d="M5599 7723 c-13 -15 -12 -15 11 -3 34 17 36 20 18 20 -9 0 -22 -7
-29 -17z"/>
<path d="M2765 7700 c3 -5 8 -10 11 -10 2 0 4 5 4 10 0 6 -5 10 -11 10 -5 0
-7 -4 -4 -10z"/>
<path d="M3542 7698 c-6 -6 -44 -15 -83 -19 -40 -5 -77 -13 -83 -19 -8 -8 -4
-10 14 -5 14 3 41 7 60 9 106 11 138 19 133 32 -6 17 -25 18 -41 2z"/>
<path d="M5393 7703 c9 -2 23 -2 30 0 6 3 -1 5 -18 5 -16 0 -22 -2 -12 -5z"/>
<path d="M2858 7671 c-10 -10 -18 -25 -18 -34 0 -9 -16 -27 -35 -39 -19 -13
-35 -29 -35 -35 0 -19 11 -16 37 9 20 18 26 20 49 9 28 -13 40 -9 29 8 -3 6
-16 11 -28 11 -21 0 -21 1 3 13 17 9 26 22 28 45 4 36 -5 39 -30 13z"/>
<path d="M3175 7680 c3 -5 10 -10 16 -10 5 0 9 5 9 10 0 6 -7 10 -16 10 -8 0
-12 -4 -9 -10z"/>
<path d="M4275 7680 c-4 -6 11 -10 37 -9 33 0 38 2 23 9 -28 12 -53 12 -60 0z"/>
<path d="M5336 7666 l-16 -25 30 17 c32 18 39 32 16 32 -7 0 -21 -11 -30 -24z"/>
<path d="M5300 7660 c-14 -10 -22 -21 -19 -24 3 -3 16 5 29 19 28 30 24 32
-10 5z"/>
<path d="M2790 7660 c0 -5 5 -10 10 -10 6 0 10 5 10 10 0 6 -4 10 -10 10 -5 0
-10 -4 -10 -10z"/>
<path d="M3084 7604 c10 -41 24 -51 18 -14 -2 17 -9 33 -15 37 -6 4 -7 -4 -3
-23z"/>
<path d="M5117 7619 c-10 -6 -36 -12 -59 -14 -39 -4 -57 -17 -58 -40 0 -6 -10
-11 -21 -12 -12 -1 -26 -6 -32 -12 -6 -6 6 -8 34 -4 30 3 51 13 64 29 12 13
31 24 44 24 27 0 61 17 61 30 0 13 -10 12 -33 -1z"/>
<path d="M5185 7610 c-3 -5 1 -10 7 -13 17 -5 48 3 48 13 0 10 -49 10 -55 0z"/>
<path d="M5277 7599 c-15 -17 -28 -20 -75 -17 -71 3 -90 -6 -66 -33 25 -28 61
-23 139 18 57 30 66 38 49 44 -28 11 -28 11 -47 -12z"/>
<path d="M4717 7603 c-11 -11 -8 -23 6 -23 8 0 14 7 14 15 0 16 -9 19 -20 8z"/>
<path d="M4626 7581 c-22 -24 -5 -37 26 -20 14 8 18 14 10 17 -6 2 -10 8 -6
13 10 17 -13 9 -30 -10z"/>
<path d="M1850 7539 c13 -24 4 -79 -13 -79 -24 1 -59 37 -60 62 -2 33 -17 26
-17 -8 0 -16 10 -30 28 -42 31 -18 32 -42 1 -42 -15 0 -17 -4 -9 -24 5 -13 7
-26 5 -27 -2 -2 10 -5 26 -6 27 -2 29 0 23 20 -4 12 -10 23 -15 25 -14 6 2 32
20 32 23 0 61 37 61 59 0 20 -14 34 -43 44 -15 6 -16 4 -7 -14z"/>
<path d="M4543 7550 c-12 -5 -75 -16 -140 -26 -65 -9 -143 -27 -173 -39 -30
-13 -75 -26 -100 -30 -25 -4 -60 -15 -78 -26 -18 -10 -40 -19 -48 -19 -9 0
-30 -14 -47 -32 -18 -17 -54 -45 -82 -62 -27 -17 -51 -40 -53 -51 -3 -11 -17
-39 -33 -62 -36 -54 -20 -55 31 -3 21 22 56 47 77 55 21 8 60 38 87 65 35 36
55 49 68 44 12 -3 42 10 87 40 38 25 78 46 89 46 12 0 24 5 27 10 3 6 23 10
43 10 20 1 48 7 62 14 17 10 45 13 95 9 57 -5 73 -3 84 11 7 9 24 16 37 16 22
0 23 2 12 20 -14 22 -14 22 -45 10z"/>
<path d="M5050 7550 c-26 -16 -4 -21 31 -6 31 14 32 15 9 15 -14 1 -32 -3 -40
-9z"/>
<path d="M4696 7542 c-3 -5 8 -6 25 -4 16 2 29 6 29 8 0 8 -49 4 -54 -4z"/>
<path d="M2770 7532 c0 -10 21 -32 31 -32 4 0 5 9 2 20 -5 19 -33 29 -33 12z"/>
<path d="M3116 7509 c12 -13 25 -35 29 -49 4 -14 11 -29 15 -35 4 -5 10 -36
14 -68 5 -45 3 -58 -6 -55 -7 2 -17 14 -23 26 -5 12 -12 22 -15 22 -9 0 -50
-66 -50 -80 0 -9 6 -6 16 8 17 24 43 29 62 10 17 -17 15 -31 -8 -55 -20 -22
-20 -22 1 -28 24 -8 81 13 73 27 -3 5 0 16 7 24 10 13 10 21 -3 47 -25 51 -78
191 -78 205 0 6 -4 12 -9 12 -5 0 -18 3 -28 7 -16 5 -15 3 3 -18z"/>
<path d="M2847 7506 c-16 -13 -16 -15 3 -37 16 -20 19 -21 20 -6 0 11 8 17 21
17 20 0 21 -1 5 -25 -12 -18 -13 -25 -4 -25 7 0 19 -9 26 -21 7 -12 16 -18 19
-15 3 3 -2 12 -11 21 -18 18 -21 45 -6 45 6 0 5 8 -2 20 -7 11 -18 20 -25 20
-7 0 -13 5 -13 10 0 14 -11 12 -33 -4z"/>
<path d="M3012 7427 c-18 -50 -16 -63 8 -42 21 19 25 41 12 62 -5 9 -12 2 -20
-20z"/>
<path d="M212 7423 c2 -10 13 -19 26 -21 18 -3 20 -7 12 -23 -7 -13 -7 -19 0
-19 5 0 10 5 10 11 0 8 13 10 37 6 21 -4 32 -3 27 3 -5 4 -20 10 -34 12 -14 2
-26 11 -30 23 -7 26 -53 33 -48 8z"/>
<path d="M1477 7409 c-9 -6 -15 -15 -11 -20 4 -7 12 -5 22 4 10 8 26 17 37 20
16 4 15 5 -5 6 -14 0 -33 -4 -43 -10z"/>
<path d="M4638 7413 c7 -3 16 -2 19 1 4 3 -2 6 -13 5 -11 0 -14 -3 -6 -6z"/>
<path d="M152 7398 c2 -7 -5 -12 -15 -12 -10 1 -17 -2 -15 -8 2 -5 7 -9 12 -8
5 1 12 -4 17 -11 6 -10 11 -10 23 0 21 18 20 28 -4 41 -16 8 -20 8 -18 -2z"/>
<path d="M1757 7396 c-4 -10 -7 -25 -6 -34 0 -11 4 -9 10 7 5 13 8 29 6 35 -2
5 -6 2 -10 -8z"/>
<path d="M4478 7380 c-27 -17 -53 -30 -59 -30 -6 0 -43 -16 -82 -35 -39 -19
-82 -35 -95 -35 -14 0 -40 -10 -59 -21 -26 -16 -43 -20 -72 -15 -34 5 -44 1
-90 -35 -28 -22 -51 -44 -51 -48 0 -9 61 8 170 49 41 15 95 34 120 43 70 23
178 72 260 116 72 39 73 40 40 41 -22 0 -53 -12 -82 -30z"/>
<path d="M1334 7386 c-27 -12 -32 -21 -39 -61 -4 -30 -3 -51 4 -58 8 -8 11 -1
11 26 0 31 4 38 25 43 13 3 29 12 36 20 6 8 22 14 34 14 12 0 28 7 35 15 11
13 6 15 -31 15 -24 -1 -58 -7 -75 -14z"/>
<path d="M7444 7337 c1 -28 -2 -32 -24 -30 -22 2 -23 1 -7 -8 13 -8 22 -7 33
1 16 14 19 56 5 64 -5 3 -8 -9 -7 -27z"/>
<path d="M338 7337 c-6 -30 1 -47 18 -47 8 0 14 -6 14 -12 0 -9 3 -9 9 1 6 10
5 25 -5 42 -19 38 -31 43 -36 16z"/>
<path d="M1464 7315 c-10 -8 -31 -15 -45 -15 -15 0 -33 -7 -40 -16 -7 -9 -22
-20 -34 -24 -18 -8 -17 -9 8 -9 15 -1 41 6 58 14 16 9 33 13 38 10 16 -9 57
19 53 38 -4 21 -12 21 -38 2z"/>
<path d="M7477 7299 c-3 -12 -1 -32 4 -46 8 -21 14 -24 46 -21 34 3 38 6 41
34 2 19 -2 33 -10 36 -9 4 -13 -4 -13 -26 0 -24 -5 -32 -22 -34 -17 -3 -24 3
-29 22 -3 14 -4 33 0 41 3 8 2 15 -3 15 -5 0 -11 -9 -14 -21z"/>
<path d="M1678 7275 c2 -14 8 -25 13 -25 5 0 9 11 9 25 0 14 -6 25 -14 25 -9
0 -12 -8 -8 -25z"/>
<path d="M2518 7283 c6 -2 18 -2 25 0 6 3 1 5 -13 5 -14 0 -19 -2 -12 -5z"/>
<path d="M322 7266 c10 -7 15 -15 12 -18 -2 -3 2 -8 11 -11 8 -4 15 -1 15 6 0
18 -21 37 -39 37 -14 -1 -13 -3 1 -14z"/>
<path d="M1597 7206 c-3 -8 -1 -17 6 -20 7 -2 4 -5 -5 -5 -23 -1 -25 -56 -2
-65 22 -8 22 -9 16 19 -3 18 0 25 12 25 19 0 21 31 4 48 -16 16 -25 15 -31 -2z"/>
<path d="M7095 7201 c-3 -6 -15 -11 -26 -11 -10 0 -19 -4 -19 -10 0 -5 -11
-12 -25 -16 -16 -4 -25 -13 -25 -25 0 -11 -25 -44 -55 -74 -36 -37 -52 -60
-48 -71 5 -13 9 -11 22 9 9 14 44 46 79 72 58 43 121 120 109 132 -3 2 -8 0
-12 -6z"/>
<path d="M3296 7189 c-13 -40 -16 -70 -7 -65 11 7 25 65 17 73 -3 3 -8 0 -10
-8z"/>
<path d="M1714 7145 c-10 -8 -14 -15 -8 -15 6 0 17 7 24 15 16 19 9 19 -16 0z"/>
<path d="M3925 7130 c-16 -11 -25 -20 -19 -20 11 0 64 39 54 40 -3 0 -18 -9
-35 -20z"/>
<path d="M3790 7130 c0 -5 9 -10 21 -10 32 0 18 -21 -34 -55 -26 -16 -47 -35
-47 -41 0 -6 -10 -19 -21 -30 -12 -10 -25 -29 -30 -41 -5 -13 -15 -23 -22 -23
-12 0 -70 -79 -73 -98 0 -4 -4 -15 -8 -24 -4 -9 -5 -22 -1 -28 3 -5 2 -10 -4
-10 -5 0 -11 5 -13 12 -9 27 -58 -43 -58 -83 0 -9 -15 -30 -32 -46 -18 -15
-39 -42 -47 -58 -8 -17 -16 -24 -18 -17 -6 17 -23 15 -23 -3 0 -8 -4 -23 -9
-33 -5 -9 -12 -25 -15 -36 -4 -11 -12 -16 -21 -12 -9 3 -17 0 -19 -7 -2 -6 -9
-31 -15 -54 -12 -45 -36 -62 -25 -18 5 22 3 25 -21 25 -23 0 -25 3 -20 23 6
17 4 19 -5 11 -13 -13 -20 -174 -7 -174 17 0 4 -24 -33 -59 -45 -42 -49 -51
-20 -51 11 0 20 7 20 15 0 31 20 14 30 -26 10 -35 9 -44 -6 -60 -9 -10 -22
-19 -28 -19 -6 0 -12 -11 -12 -25 -2 -19 1 -23 10 -16 19 16 55 1 71 -28 l14
-26 1 33 c0 17 -3 32 -7 32 -5 0 -8 46 -8 103 1 93 4 108 33 170 17 38 58 99
90 135 32 37 70 88 85 113 14 26 56 84 93 130 37 46 84 120 104 164 41 86 51
98 121 138 50 28 99 79 99 103 0 10 -13 14 -45 14 -25 0 -45 -4 -45 -10z"/>
<path d="M3720 7115 c-8 -9 -8 -15 -2 -15 12 0 26 19 19 26 -2 2 -10 -2 -17
-11z"/>
<path d="M1482 7102 c-17 -11 -29 -82 -13 -82 6 0 11 9 11 20 0 25 32 44 48
28 7 -7 15 -8 19 -4 5 4 -3 16 -16 27 -26 21 -30 22 -49 11z"/>
<path d="M3294 7075 c4 -22 12 -42 17 -43 16 -6 39 -59 39 -89 0 -15 -7 -50
-16 -78 -8 -27 -19 -85 -24 -127 -5 -42 -14 -85 -19 -95 -19 -32 -52 -125 -47
-131 3 -2 11 8 17 24 7 16 23 54 37 84 16 34 27 78 29 115 2 32 13 79 23 103
24 53 25 102 6 140 -8 15 -17 44 -21 64 -4 20 -16 45 -27 55 -21 18 -21 18
-14 -22z"/>
<path d="M6814 7078 c-56 -27 -107 -185 -103 -317 l3 -86 59 -39 c49 -33 58
-42 55 -65 -3 -24 0 -26 38 -26 23 -1 49 -6 57 -13 14 -12 23 -9 86 25 2 1 0
15 -4 30 -7 27 -7 28 -16 6 -4 -13 -14 -23 -21 -23 -27 1 -123 57 -126 73 -3
15 0 16 23 7 26 -10 27 -9 21 12 -3 13 -6 27 -6 31 0 5 -9 5 -20 2 -19 -6 -20
-2 -20 60 0 45 -4 65 -11 63 -18 -6 -42 -89 -36 -125 5 -27 3 -33 -13 -33 -10
0 -28 12 -40 28 -19 23 -21 36 -17 89 3 35 14 80 26 103 11 22 21 55 21 73 0
18 4 38 9 46 11 18 31 5 31 -20 0 -35 18 -11 25 34 3 23 9 50 11 60 6 19 -1
20 -32 5z"/>
<path d="M7369 7033 c-46 -7 -65 -45 -60 -113 1 -13 3 -13 10 -1 8 12 16 11
52 -3 34 -14 44 -15 50 -4 15 23 10 28 -25 28 -42 0 -84 43 -65 66 18 21 86
17 109 -6 24 -24 30 -25 30 -4 0 12 -61 48 -72 43 -2 -1 -15 -4 -29 -6z"/>
<path d="M3290 6989 c0 -11 4 -18 10 -14 5 3 7 12 3 20 -7 21 -13 19 -13 -6z"/>
<path d="M1470 6961 c0 -17 2 -31 4 -31 8 0 13 51 5 56 -5 3 -9 -9 -9 -25z"/>
<path d="M3290 6951 c0 -6 5 -13 10 -16 6 -3 10 1 10 9 0 9 -4 16 -10 16 -5 0
-10 -4 -10 -9z"/>
<path d="M7220 6929 c-6 -11 -9 -30 -7 -42 4 -21 4 -21 6 1 0 13 11 32 24 43
18 15 19 18 5 19 -10 0 -22 -9 -28 -21z"/>
<path d="M260 6923 c0 -9 -8 -25 -17 -36 -18 -19 -17 -20 22 -12 57 10 79 24
40 25 -28 1 -29 2 -7 10 32 13 27 30 -8 30 -21 0 -30 -5 -30 -17z"/>
<path d="M816 6924 c-9 -22 -8 -24 8 -18 20 8 29 34 12 34 -8 0 -17 -7 -20
-16z"/>
<path d="M2697 6923 c-12 -11 -8 -60 6 -71 9 -8 12 -2 12 26 0 35 2 37 30 35
22 -2 26 0 15 7 -17 11 -54 13 -63 3z"/>
<path d="M662 6913 c-12 -2 -35 -11 -50 -20 l-27 -15 30 7 c17 4 40 7 52 8 13
1 25 8 28 15 2 6 1 11 -3 11 -4 -1 -17 -4 -30 -6z"/>
<path d="M927 6903 c3 -10 9 -22 13 -28 4 -5 6 -31 5 -57 -2 -48 5 -57 32 -40
7 4 15 22 19 39 5 25 0 37 -26 67 -34 39 -53 47 -43 19z"/>
<path d="M2584 6896 c-8 -20 14 -56 34 -56 13 0 12 3 -7 16 -15 11 -21 23 -18
35 6 22 -1 26 -9 5z"/>
<path d="M3252 6830 l1 -75 7 65 c4 36 3 69 -2 75 -4 5 -7 -25 -6 -65z"/>
<path d="M7305 6880 c-3 -5 -1 -10 4 -10 6 0 11 5 11 10 0 6 -2 10 -4 10 -3 0
-8 -4 -11 -10z"/>
<path d="M1426 6853 c-10 -10 -7 -53 4 -53 6 0 10 5 10 10 0 18 52 33 62 18 5
-9 8 -7 8 8 0 18 -6 22 -39 22 -21 0 -42 -2 -45 -5z"/>
<path d="M7302 6840 c0 -14 2 -19 5 -12 2 6 2 18 0 25 -3 6 -5 1 -5 -13z"/>
<path d="M645 6840 c-4 -6 -10 -8 -15 -5 -5 3 -11 1 -15 -5 -3 -5 3 -10 13
-10 11 0 22 7 26 15 6 17 0 20 -9 5z"/>
<path d="M450 6828 c1 -16 30 -56 30 -41 0 7 -5 15 -11 18 -6 4 -8 13 -5 21 3
8 1 14 -4 14 -6 0 -10 -6 -10 -12z"/>
<path d="M525 6813 c-11 -3 -24 -10 -30 -15 -7 -7 -2 -8 13 -3 17 5 27 2 37
-12 7 -10 17 -14 22 -10 4 5 0 13 -10 18 -9 6 -15 14 -12 20 4 5 5 8 3 8 -2
-1 -12 -3 -23 -6z"/>
<path d="M850 6810 c0 -5 5 -10 11 -10 5 0 7 5 4 10 -3 6 -8 10 -11 10 -2 0
-4 -4 -4 -10z"/>
<path d="M7310 6790 c0 -21 -34 -45 -50 -35 -6 3 -10 -1 -10 -9 0 -19 36 -40
56 -32 9 3 14 -1 14 -14 0 -31 28 -24 32 7 2 22 9 29 32 33 17 3 28 10 25 15
-2 6 -7 9 -11 8 -4 -2 -25 -5 -47 -9 l-41 -7 6 32 c4 17 4 31 0 31 -3 0 -6 -9
-6 -20z"/>
<path d="M595 6789 c-4 -6 -5 -12 -2 -15 2 -3 7 2 10 11 7 17 1 20 -8 4z"/>
<path d="M7740 6785 c-8 -9 -8 -15 -2 -15 12 0 26 19 19 26 -2 2 -10 -2 -17
-11z"/>
<path d="M1146 6763 c6 -4 14 -15 17 -23 5 -11 6 -9 4 4 -1 11 -9 21 -17 23
-10 3 -11 2 -4 -4z"/>
<path d="M1069 6741 c6 -10 5 -24 -1 -35 -9 -16 -8 -17 8 -8 24 13 26 49 2 55
-14 4 -16 2 -9 -12z"/>
<path d="M1582 6728 c-30 -30 -5 -69 43 -67 l30 1 -32 9 c-35 10 -43 35 -21
57 7 7 8 12 2 12 -5 0 -15 -5 -22 -12z"/>
<path d="M7417 6709 c5 -25 2 -31 -15 -36 -29 -7 -27 -75 3 -84 13 -3 20 -13
19 -27 0 -12 4 -22 11 -22 7 0 9 13 7 35 -3 27 -9 35 -24 35 -11 0 -18 5 -15
13 2 6 10 11 18 10 10 -2 14 11 16 52 1 42 -2 55 -12 55 -11 0 -13 -8 -8 -31z"/>
<path d="M6940 6710 c0 -10 12 -36 26 -57 28 -40 27 -26 -2 45 -15 36 -24 41
-24 12z"/>
<path d="M954 6705 c-10 -8 -14 -15 -8 -15 6 0 17 7 24 15 16 19 9 19 -16 0z"/>
<path d="M2938 6694 c-15 -31 0 -61 28 -56 11 2 38 5 62 6 23 2 45 5 47 8 3 3
-8 19 -24 37 -39 42 -95 44 -113 5z"/>
<path d="M638 6700 c12 -5 22 -17 23 -27 0 -11 3 -13 6 -5 7 17 -15 42 -36 41
-11 0 -9 -3 7 -9z"/>
<path d="M910 6670 c0 -5 5 -10 10 -10 6 0 10 5 10 10 0 6 -4 10 -10 10 -5 0
-10 -4 -10 -10z"/>
<path d="M970 6660 c-13 -25 -2 -25 30 0 25 19 25 20 3 20 -12 0 -27 -9 -33
-20z"/>
<path d="M591 6654 c0 -11 3 -14 6 -6 3 7 2 16 -1 19 -3 4 -6 -2 -5 -13z"/>
<path d="M880 6661 c0 -5 -10 -12 -22 -16 -21 -7 -21 -8 7 -12 28 -4 69 -43
45 -43 -5 0 -10 -9 -10 -20 0 -30 13 -24 32 15 16 32 16 34 -1 40 -11 3 -21
15 -24 25 -5 20 -27 28 -27 11z"/>
<path d="M629 6636 c-28 -14 -37 -36 -12 -31 61 12 73 16 73 24 0 15 -37 19
-61 7z"/>
<path d="M6710 6626 c0 -31 6 -34 13 -6 3 11 1 23 -4 26 -5 3 -9 -6 -9 -20z"/>
<path d="M752 6633 c-14 -3 -22 -11 -20 -21 2 -13 -4 -17 -24 -15 -16 1 -28
-2 -28 -8 0 -5 11 -9 25 -9 14 0 25 -4 25 -10 0 -5 7 -7 15 -4 9 4 15 0 16 -7
0 -8 6 2 13 21 8 23 20 36 34 38 12 2 20 8 17 13 -6 9 -31 10 -73 2z"/>
<path d="M3100 6610 c0 -5 5 -10 11 -10 5 0 7 5 4 10 -3 6 -8 10 -11 10 -2 0
-4 -4 -4 -10z"/>
<path d="M3210 6605 c-7 -9 -11 -17 -9 -20 3 -2 10 5 17 15 14 24 10 26 -8 5z"/>
<path d="M6350 6590 c-9 -6 -10 -10 -3 -10 6 0 15 5 18 10 8 12 4 12 -15 0z"/>
<path d="M635 6526 c17 -22 31 -33 33 -26 3 7 -1 16 -8 20 -8 5 -7 9 6 14 14
5 15 9 5 19 -9 9 -14 9 -21 -2 -7 -13 -11 -13 -26 0 -10 8 -5 -3 11 -25z"/>
<path d="M2960 6550 c0 -5 4 -10 9 -10 5 0 7 -9 4 -20 -5 -18 0 -20 36 -20 22
0 41 5 41 10 0 9 -16 14 -23 8 -1 -2 -13 7 -27 20 -26 24 -40 28 -40 12z"/>
<path d="M3110 6541 c-7 -14 -7 -22 1 -27 10 -6 28 11 29 28 0 17 -20 17 -30
-1z"/>
<path d="M6555 6539 c12 -18 -4 -55 -27 -67 -17 -8 -19 -11 -6 -11 9 -1 24 9
32 21 18 26 21 68 5 68 -5 0 -7 -5 -4 -11z"/>
<path d="M902 6517 c-5 -6 -12 -21 -14 -32 -2 -11 -11 -19 -21 -19 -9 1 -17
-2 -17 -7 0 -5 5 -9 11 -9 7 0 9 -9 5 -23 -3 -14 1 -31 10 -43 15 -18 15 -18
5 1 -6 14 -5 26 5 39 13 19 14 19 34 1 11 -10 23 -15 26 -12 4 3 -7 18 -22 32
-28 26 -28 27 -10 40 13 10 24 11 37 4 29 -15 23 -3 -10 20 -22 16 -31 18 -39
8z"/>
<path d="M840 6506 c0 -9 5 -16 10 -16 6 0 10 4 10 9 0 6 -4 13 -10 16 -5 3
-10 -1 -10 -9z"/>
<path d="M2846 6507 c-32 -10 -41 -19 -53 -51 -18 -52 -2 -70 28 -32 19 24 27
27 72 24 45 -3 52 -6 57 -28 5 -20 7 -22 12 -8 9 23 -49 110 -72 107 -3 0 -23
-6 -44 -12z"/>
<path d="M7340 6512 c0 -17 25 -32 54 -32 26 0 28 2 16 14 -18 16 -70 30 -70
18z"/>
<path d="M760 6495 c0 -8 7 -15 16 -15 11 0 14 -5 10 -16 -4 -11 -1 -14 11
-12 9 2 18 9 21 17 3 9 0 11 -7 6 -8 -4 -14 1 -18 14 -6 24 -33 29 -33 6z"/>
<path d="M1893 6499 c9 -5 17 -18 18 -27 0 -11 2 -12 6 -4 6 15 -14 42 -31 42
-6 0 -3 -5 7 -11z"/>
<path d="M6767 6499 c7 -7 15 -10 18 -7 3 3 -2 9 -12 12 -14 6 -15 5 -6 -5z"/>
<path d="M705 6451 c28 -26 67 -38 59 -17 -3 9 -17 16 -30 16 -13 0 -24 5 -24
10 0 6 -5 10 -12 10 -7 0 -4 -8 7 -19z"/>
<path d="M1624 6418 c-19 -21 -19 -21 5 -8 29 15 41 1 41 -47 0 -23 5 -33 15
-33 8 0 15 -4 15 -10 0 -5 7 -10 15 -10 23 0 18 16 -10 34 -17 11 -25 26 -25
46 0 41 -31 57 -56 28z"/>
<path d="M7016 6426 c3 -9 11 -16 16 -16 13 0 5 23 -10 28 -7 2 -10 -2 -6 -12z"/>
<path d="M805 6420 c3 -5 8 -10 11 -10 2 0 4 5 4 10 0 6 -5 10 -11 10 -5 0 -7
-4 -4 -10z"/>
<path d="M1069 6418 c8 -10 11 -28 7 -42 -5 -20 -1 -26 22 -34 15 -5 36 -13
47 -17 11 -4 3 5 -17 19 -21 15 -38 35 -38 45 0 10 -8 25 -17 32 -16 13 -17
12 -4 -3z"/>
<path d="M7310 6421 c0 -5 15 -19 33 -30 18 -11 48 -38 65 -60 30 -38 32 -45
26 -91 -7 -53 6 -68 26 -29 23 41 0 83 -107 196 -23 24 -43 30 -43 14z"/>
<path d="M3129 6394 c-13 -15 -18 -25 -10 -22 13 4 49 48 39 48 -2 0 -15 -12
-29 -26z"/>
<path d="M1030 6351 c0 -5 7 -11 15 -15 8 -3 15 -1 15 3 0 5 -7 11 -15 15 -8
3 -15 1 -15 -3z"/>
<path d="M970 6332 c0 -10 33 -42 43 -42 12 0 7 18 -9 34 -17 17 -34 21 -34 8z"/>
<path d="M3072 6328 c-7 -7 -12 -23 -12 -37 0 -30 15 -17 24 22 7 30 5 32 -12
15z"/>
<path d="M7057 6325 c-21 -15 -23 -29 -3 -22 8 3 29 2 46 -3 28 -8 30 -7 19 6
-22 26 -43 33 -62 19z"/>
<path d="M1265 6305 c-16 -6 -31 -16 -32 -23 -4 -15 13 -16 23 -1 3 6 14 9 24
6 11 -3 21 1 24 9 7 19 -4 22 -39 9z"/>
<path d="M1594 6285 c-13 -20 -14 -28 -4 -40 7 -8 19 -15 26 -15 30 0 1 -39
-40 -54 -15 -5 -16 -10 -8 -18 9 -9 16 -7 30 5 29 26 105 23 126 -5 l17 -23
-5 31 c-5 30 -4 31 19 20 25 -11 28 -34 5 -28 -11 3 -11 0 0 -12 17 -21 27
-20 60 7 15 12 36 28 46 35 18 12 17 12 -4 6 -20 -5 -22 -3 -17 19 4 15 0 37
-8 54 l-16 28 -9 -25 c-7 -19 -6 -26 4 -28 8 -2 14 -10 14 -18 0 -12 -6 -11
-27 5 -24 20 -28 20 -49 6 -13 -8 -30 -15 -38 -15 -8 0 -22 -7 -31 -16 -8 -9
-23 -13 -32 -10 -9 4 -13 9 -9 13 3 4 -6 19 -20 34 -17 18 -24 34 -20 45 5 14
11 12 36 -15 23 -24 30 -27 30 -13 -1 24 -24 52 -43 52 -9 0 -24 -11 -33 -25z"/>
<path d="M1715 6270 c3 -5 15 -10 26 -10 11 0 17 5 14 10 -3 6 -15 10 -26 10
-11 0 -17 -4 -14 -10z"/>
<path d="M1044 6255 c3 -9 0 -15 -10 -15 -8 0 -12 -5 -9 -11 4 -6 14 -8 22 -5
8 3 27 -1 44 -9 38 -20 37 -12 -3 25 -36 32 -53 38 -44 15z"/>
<path d="M6930 6251 c0 -6 4 -13 10 -16 6 -3 7 1 4 9 -7 18 -14 21 -14 7z"/>
<path d="M7050 6245 c-8 -9 -8 -15 -2 -15 12 0 26 19 19 26 -2 2 -10 -2 -17
-11z"/>
<path d="M1246 6242 c6 -4 16 -17 23 -29 7 -14 21 -23 34 -23 20 1 20 2 -5 16
-16 8 -28 21 -28 29 0 8 -8 15 -17 15 -11 0 -14 -3 -7 -8z"/>
<path d="M1355 6220 c11 -12 19 -25 18 -29 -2 -3 2 -6 9 -6 26 0 17 25 -14 41
l-33 17 20 -23z"/>
<path d="M1974 6219 c-29 -10 -37 -26 -19 -33 25 -9 18 -28 -7 -21 -15 5 -20
4 -13 -3 6 -5 22 -12 38 -16 20 -5 27 -3 27 9 0 19 30 32 39 17 4 -8 17 -9 36
-3 23 6 38 4 62 -11 18 -11 40 -18 50 -16 19 4 -79 60 -99 57 -12 -2 -24 1
-73 20 -11 5 -30 5 -41 0z"/>
<path d="M6493 6213 c-13 -8 -23 -25 -23 -37 0 -24 55 -84 67 -73 7 8 43 -47
43 -67 0 -8 11 -21 25 -30 14 -9 33 -35 41 -57 9 -22 28 -46 43 -54 53 -28 88
-70 100 -122 9 -36 10 -57 2 -71 -8 -15 -5 -26 13 -51 18 -25 25 -28 29 -16 8
20 27 19 27 -1 0 -11 5 -14 16 -10 9 3 18 6 20 6 9 0 4 39 -6 45 -5 3 -10 1
-10 -5 0 -6 -10 -10 -22 -8 -17 2 -24 11 -26 32 -2 16 -9 39 -17 50 -7 12 -15
48 -18 80 -7 69 -15 79 -59 79 -42 -1 -94 43 -77 64 8 8 8 13 1 13 -5 0 -15
15 -22 33 -7 17 -14 26 -17 20 -10 -27 -25 -12 -21 22 3 24 0 35 -9 35 -7 0
-13 7 -13 15 0 8 -9 24 -21 36 -11 11 -18 27 -15 35 6 16 -10 54 -22 53 -4 0
-17 -7 -29 -16z m27 -28 c0 -14 -4 -25 -10 -25 -5 0 -10 11 -10 25 0 14 5 25
10 25 6 0 10 -11 10 -25z"/>
<path d="M7522 6218 c-16 -16 -15 -21 7 -46 26 -31 34 -27 26 11 -9 41 -18 50
-33 35z"/>
<path d="M1077 6170 c15 -22 34 -40 41 -40 7 0 17 -12 23 -27 8 -22 12 -24 19
-13 6 10 2 21 -13 35 -12 11 -24 18 -26 17 -3 -2 -13 12 -23 32 -10 20 -25 36
-34 36 -12 0 -9 -9 13 -40z"/>
<path d="M7230 6200 c0 -5 7 -10 16 -10 8 0 12 5 9 10 -3 6 -10 10 -16 10 -5
0 -9 -4 -9 -10z"/>
<path d="M7310 6185 c0 -16 16 -20 24 -6 3 5 -1 11 -9 15 -9 3 -15 0 -15 -9z"/>
<path d="M3026 6174 c-9 -24 -4 -25 23 -3 22 18 22 19 3 19 -11 0 -23 -7 -26
-16z"/>
<path d="M3117 6178 c-6 -17 10 -58 23 -58 5 0 10 5 10 10 0 6 -5 10 -11 10
-7 0 -9 10 -7 25 5 26 -6 35 -15 13z"/>
<path d="M7195 6180 c-3 -4 4 -10 15 -13 11 -3 22 -2 25 3 3 4 -4 10 -15 13
-11 3 -22 2 -25 -3z"/>
<path d="M7420 6167 c0 -7 -16 -32 -36 -55 -33 -39 -35 -45 -25 -73 11 -31 3
-54 -26 -87 -17 -18 -16 -27 2 -42 21 -17 42 2 57 53 7 23 20 42 30 45 10 2
15 8 13 13 -3 4 -12 6 -19 3 -9 -4 -15 5 -19 28 -5 39 1 54 16 39 6 -6 17 -11
24 -11 18 0 16 29 -3 37 -11 4 -13 13 -9 34 4 16 4 29 1 29 -3 0 -6 -6 -6 -13z"/>
<path d="M7262 6128 c-15 -15 2 -38 29 -38 15 0 17 4 10 22 -10 27 -23 32 -39
16z"/>
<path d="M1944 6122 c-14 -9 2 -72 19 -73 7 0 19 -2 28 -4 13 -2 16 6 16 39 0
30 -2 36 -8 21 -4 -11 -8 -14 -8 -7 -1 7 -6 10 -13 6 -8 -5 -9 -2 -5 9 7 18
-9 23 -29 9z"/>
<path d="M2312 6112 c4 -24 -58 -28 -107 -8 -41 18 -81 21 -89 7 -3 -4 -18
-11 -33 -14 -16 -3 -37 -13 -48 -21 -19 -15 -19 -15 10 -10 l30 5 1 -55 c2
-58 -4 -67 -26 -41 -17 20 -44 20 -36 -1 6 -16 -24 -67 -54 -92 -16 -14 -10
-13 49 3 12 4 21 -1 25 -11 6 -15 9 -15 23 6 15 21 15 25 -2 53 -10 16 -14 28
-9 25 77 -35 89 -45 73 -64 -6 -7 -4 -15 5 -23 11 -10 15 -9 18 5 4 20 84 30
105 13 10 -9 17 -9 25 -1 7 7 25 12 40 12 15 0 28 5 28 10 0 13 86 13 111 0
31 -17 72 8 80 48 4 18 9 36 13 39 10 11 200 10 214 -1 9 -6 16 -6 20 1 4 6
27 19 52 29 25 9 50 23 56 30 17 20 36 1 28 -29 -13 -54 45 -22 61 33 8 25 7
25 -13 6 -21 -18 -22 -18 -32 8 -13 35 -13 43 3 50 17 8 -49 -2 -100 -16 -24
-6 -43 -15 -43 -20 0 -5 5 -6 10 -3 6 3 10 1 10 -4 0 -15 27 -14 33 2 2 7 8 8
13 3 5 -5 4 -11 -3 -13 -7 -3 -13 -11 -13 -18 0 -10 -34 -15 -137 -20 -76 -4
-144 -11 -152 -15 -9 -5 -27 6 -54 31 -21 22 -47 39 -56 38 -10 0 -12 -2 -3
-6 22 -9 3 -20 -28 -15 -17 2 -30 10 -30 18 0 8 -10 14 -26 14 -14 0 -23 4
-20 9 3 5 -1 12 -9 15 -11 4 -15 0 -13 -12z m-134 -35 c2 -12 -3 -17 -17 -17
-15 0 -21 6 -21 21 0 25 33 22 38 -4z m318 -52 c28 -37 13 -59 -40 -58 -66 1
-68 2 -60 25 6 20 5 21 -10 9 -18 -15 -21 -5 -10 35 5 18 10 20 56 14 32 -4
56 -14 64 -25z m-244 -10 c34 -23 37 -28 27 -53 -6 -15 -9 -29 -7 -32 7 -11
-45 -11 -56 0 -8 8 -5 16 14 31 l25 19 -23 20 c-22 18 -26 19 -54 4 -39 -20
-52 -14 -33 14 21 29 61 28 107 -3z m698 15 c0 -5 -5 -10 -11 -10 -5 0 -7 5
-4 10 3 6 8 10 11 10 2 0 4 -4 4 -10z"/>
<path d="M2958 6118 c9 -9 15 -9 24 0 9 9 7 12 -12 12 -19 0 -21 -3 -12 -12z"/>
<path d="M7540 6121 c0 -18 12 -41 21 -41 15 0 10 37 -6 44 -8 3 -15 1 -15 -3z"/>
<path d="M160 6106 c8 -8 42 -23 75 -34 33 -11 52 -15 41 -8 -10 6 -34 21 -53
34 -39 26 -87 32 -63 8z"/>
<path d="M120 6080 c0 -6 7 -10 15 -10 8 0 15 2 15 4 0 2 -7 6 -15 10 -8 3
-15 1 -15 -4z"/>
<path d="M7315 6070 c-3 -5 -1 -10 4 -10 6 0 11 5 11 10 0 6 -2 10 -4 10 -3 0
-8 -4 -11 -10z"/>
<path d="M7485 6071 l-30 -6 25 -18 c29 -20 42 -21 58 -5 8 8 9 15 1 25 -7 7
-14 12 -18 12 -3 -1 -19 -4 -36 -8z"/>
<path d="M653 6041 c-24 -11 -43 -25 -43 -32 0 -7 9 -4 21 7 15 14 36 19 76
19 51 0 58 -3 84 -35 19 -23 29 -29 29 -18 0 18 -54 68 -73 68 -7 0 -21 2 -32
5 -11 3 -39 -4 -62 -14z"/>
<path d="M1732 6040 c0 -14 2 -19 5 -12 2 6 2 18 0 25 -3 6 -5 1 -5 -13z"/>
<path d="M7270 6033 c0 -21 3 -24 9 -14 5 8 7 20 4 28 -8 21 -13 15 -13 -14z"/>
<path d="M3140 6020 c-9 -16 -8 -20 6 -20 12 0 15 -6 10 -25 -4 -14 -2 -34 4
-45 9 -17 7 -23 -19 -37 -23 -14 -26 -19 -15 -28 12 -8 11 -14 -1 -35 -8 -14
-17 -32 -21 -40 -4 -8 -25 -31 -47 -51 -25 -23 -35 -39 -28 -43 6 -4 9 -12 5
-17 -3 -6 -12 -5 -22 3 -13 11 -14 11 -9 -2 4 -8 10 -23 13 -32 4 -10 10 -18
15 -18 5 0 9 -7 9 -15 0 -13 3 -13 20 -3 16 10 20 24 20 71 0 51 4 62 29 88
16 16 38 29 49 29 13 0 27 14 40 41 19 37 19 43 6 57 -20 19 -34 56 -34 88 0
13 -5 24 -11 24 -6 0 -9 7 -5 15 8 22 -1 18 -14 -5z"/>
<path d="M227 6023 c-3 -5 -2 -15 2 -22 5 -7 11 -9 14 -4 3 5 2 15 -2 22 -5 7
-11 9 -14 4z"/>
<path d="M1266 6018 c5 -7 9 -17 9 -22 0 -6 15 -18 33 -29 18 -11 32 -14 32
-8 0 6 -6 11 -14 11 -7 0 -16 9 -19 19 -2 10 -15 24 -27 31 -18 10 -21 10 -14
-2z"/>
<path d="M1691 6016 c-13 -16 -2 -29 16 -18 7 4 8 13 4 20 -6 10 -10 10 -20
-2z"/>
<path d="M1758 6007 c3 -14 1 -18 -6 -13 -17 10 -15 -9 2 -23 8 -7 17 -22 20
-35 4 -18 11 -22 30 -19 24 5 24 6 9 29 -10 16 -12 24 -3 24 7 0 6 6 -4 16 -9
8 -16 19 -16 24 0 4 -8 10 -19 13 -15 3 -17 0 -13 -16z"/>
<path d="M330 5986 c14 -13 39 -26 55 -30 29 -5 29 -5 -5 12 -19 9 -41 23 -48
30 -7 6 -16 12 -20 12 -4 0 5 -11 18 -24z"/>
<path d="M675 5990 c-10 -11 -28 -20 -40 -20 -15 0 -22 -6 -21 -17 0 -10 -9
-20 -24 -24 l-25 -7 25 -1 c43 -1 70 10 70 30 0 10 9 23 20 29 17 9 22 7 30
-16 8 -21 8 -29 -2 -36 -8 -5 -9 -8 -2 -8 6 0 17 7 24 15 7 9 19 14 26 11 9
-4 9 1 -1 21 -24 46 -52 54 -80 23z"/>
<path d="M1127 6003 c-10 -9 -9 -23 2 -23 5 0 11 7 15 15 5 15 -5 20 -17 8z"/>
<path d="M3056 5985 c-20 -30 -21 -41 -2 -26 12 10 29 51 21 51 -1 0 -10 -11
-19 -25z"/>
<path d="M6845 5987 c-9 -23 1 -34 40 -42 26 -5 27 -4 7 5 -12 5 -26 20 -31
32 -8 21 -10 21 -16 5z"/>
<path d="M7272 5970 c0 -19 2 -27 5 -17 2 9 2 25 0 35 -3 9 -5 1 -5 -18z"/>
<path d="M7507 5993 c-4 -3 -7 -11 -7 -17 0 -6 5 -5 12 2 6 6 9 14 7 17 -3 3
-9 2 -12 -2z"/>
<path d="M2870 5980 c-8 -5 -31 -10 -50 -10 -25 0 -39 -6 -49 -21 -11 -19 -11
-21 4 -15 9 3 26 6 38 6 12 0 36 11 52 25 30 24 33 33 5 15z"/>
<path d="M3080 5970 c0 -19 3 -21 12 -12 9 9 9 15 0 24 -9 9 -12 7 -12 -12z"/>
<path d="M520 5960 c0 -21 -19 -27 -36 -10 -8 8 -15 6 -24 -5 -11 -13 -6 -15
39 -15 28 0 51 4 51 9 0 5 3 16 6 25 4 12 0 16 -15 16 -14 0 -21 -6 -21 -20z"/>
<path d="M3261 5963 c0 -6 -4 -20 -7 -30 -5 -14 -4 -15 5 -7 7 7 11 20 8 30
-3 11 -5 14 -6 7z"/>
<path d="M219 5955 c-1 -3 -2 -10 -3 -15 0 -6 -8 -15 -16 -20 -13 -9 -13 -10
0 -10 19 0 40 19 40 37 0 12 -18 19 -21 8z"/>
<path d="M2920 5942 c-12 -10 -21 -25 -19 -33 3 -11 12 -6 32 18 31 36 23 44
-13 15z"/>
<path d="M7174 5938 c-27 -29 -36 -64 -20 -78 17 -13 26 -3 26 30 0 14 5 31
11 37 6 6 10 16 7 23 -2 7 -12 2 -24 -12z"/>
<path d="M1001 5925 c-15 -15 -19 -25 -12 -29 6 -4 11 -3 11 2 0 5 15 16 33
24 17 8 26 13 18 11 -8 -2 -17 0 -20 5 -3 5 -17 -1 -30 -13z"/>
<path d="M1355 5940 c3 -5 8 -10 11 -10 2 0 4 5 4 10 0 6 -5 10 -11 10 -5 0
-7 -4 -4 -10z"/>
<path d="M2557 5929 c-6 -10 -19 -19 -28 -19 -9 0 -22 -7 -29 -15 -7 -8 -18
-15 -26 -15 -7 0 -20 -7 -29 -16 -10 -10 -26 -14 -42 -11 -15 3 -41 -2 -60
-11 -30 -14 -34 -14 -51 1 -19 18 -42 23 -42 10 0 -13 74 -51 88 -46 6 3 12
11 12 19 0 15 12 19 24 7 10 -10 78 -3 94 9 18 16 28 0 14 -22 -10 -16 -9 -18
3 -14 7 3 15 17 17 32 4 38 50 60 124 61 44 1 67 6 81 19 10 9 13 13 6 8 -8
-5 -19 -3 -29 5 -10 8 -39 15 -66 16 -39 1 -51 -3 -61 -18z"/>
<path d="M3050 5920 c-11 -11 -20 -29 -20 -40 0 -10 -7 -23 -16 -28 -21 -12
-57 -92 -41 -92 24 0 101 107 105 144 4 41 0 44 -28 16z"/>
<path d="M121 5920 c-1 -23 15 -45 23 -31 4 6 3 11 -3 11 -5 0 -12 8 -14 18
-3 12 -5 13 -6 2z"/>
<path d="M1221 5914 c0 -11 3 -14 6 -6 3 7 2 16 -1 19 -3 4 -6 -2 -5 -13z"/>
<path d="M1716 5918 c6 -16 93 -72 100 -65 3 3 -4 10 -15 17 -12 6 -19 15 -16
19 5 9 -19 24 -40 26 -5 0 -16 4 -22 8 -8 5 -11 3 -7 -5z"/>
<path d="M1858 5923 c7 -3 16 -2 19 1 4 3 -2 6 -13 5 -11 0 -14 -3 -6 -6z"/>
<path d="M1900 5921 c0 -5 5 -13 10 -16 6 -3 10 -2 10 4 0 5 -4 13 -10 16 -5
3 -10 2 -10 -4z"/>
<path d="M920 5890 c-14 -11 -20 -20 -14 -20 6 0 19 9 29 20 23 25 17 25 -15
0z"/>
<path d="M7287 5892 c-10 -10 -17 -24 -17 -30 0 -22 18 -12 34 18 16 34 8 40
-17 12z"/>
<path d="M1633 5885 c0 -10 11 -15 34 -15 18 0 33 -5 33 -11 0 -6 -9 -9 -20
-6 -11 3 -20 1 -20 -3 0 -13 35 -21 54 -14 11 4 16 1 16 -12 0 -16 2 -16 10
-4 11 17 -2 36 -39 54 -47 24 -68 28 -68 11z"/>
<path d="M2070 5861 c0 -16 -6 -32 -12 -34 -8 -3 -6 -6 4 -6 24 -1 51 39 36
56 -17 21 -28 15 -28 -16z"/>
<path d="M1937 5855 c3 -8 9 -12 14 -9 12 7 11 11 -5 17 -10 4 -13 1 -9 -8z"/>
<path d="M2160 5854 c0 -12 6 -15 23 -10 12 3 26 6 30 6 5 0 5 5 2 10 -10 17
-55 12 -55 -6z"/>
<path d="M2560 5850 c0 -5 5 -10 10 -10 6 0 10 5 10 10 0 6 -4 10 -10 10 -5 0
-10 -4 -10 -10z"/>
<path d="M6874 5849 c-3 -6 1 -18 9 -26 11 -12 13 -22 6 -39 -4 -13 -6 -25 -4
-25 3 -1 8 -2 13 -3 4 -1 13 -5 20 -9 18 -12 16 63 -4 91 -17 24 -29 28 -40
11z"/>
<path d="M1840 5840 c20 -13 70 -13 70 0 0 6 -19 10 -42 10 -32 0 -39 -3 -28
-10z"/>
<path d="M1980 5822 c0 -13 49 -22 56 -11 3 5 -1 9 -10 9 -8 0 -21 3 -30 6 -9
3 -16 2 -16 -4z"/>
<path d="M7334 5805 c-4 -8 -12 -15 -20 -15 -8 0 -14 -5 -14 -10 0 -6 13 -4
30 5 17 9 28 20 25 25 -9 14 -15 12 -21 -5z"/>
<path d="M1097 5803 c-15 -14 -6 -51 18 -73 14 -13 27 -21 30 -18 3 2 -4 13
-15 23 -22 20 -27 65 -7 65 23 0 41 -19 53 -52 10 -29 11 -30 16 -10 9 31 -26
72 -61 72 -15 0 -31 -3 -34 -7z"/>
<path d="M1672 5785 c-10 -12 -10 -15 1 -15 8 0 20 7 27 15 17 21 -10 20 -28
0z"/>
<path d="M2560 5775 c-14 -8 -38 -17 -55 -21 -30 -7 -30 -7 -5 -13 28 -8 90
17 90 36 0 7 -1 13 -2 12 -2 0 -14 -7 -28 -14z"/>
<path d="M2872 5780 c-48 -11 -48 -17 -2 -17 27 0 40 4 40 13 0 8 -1 14 -2 13
-2 -1 -18 -5 -36 -9z"/>
<path d="M654 5735 c-4 -8 -14 -15 -24 -15 -11 0 -22 -4 -25 -10 -3 -5 1 -10
9 -10 8 0 18 -9 21 -21 11 -33 38 -3 31 33 -4 20 -2 27 6 22 7 -4 8 -3 4 4
-10 16 -15 15 -22 -3z"/>
<path d="M7116 5735 c-3 -8 -1 -15 4 -15 6 0 10 7 10 15 0 8 -2 15 -4 15 -2 0
-6 -7 -10 -15z"/>
<path d="M894 5729 c-3 -6 -1 -16 5 -22 8 -8 11 -5 11 11 0 24 -5 28 -16 11z"/>
<path d="M6900 5721 c0 -25 6 -27 13 -6 4 8 2 17 -3 20 -6 4 -10 -3 -10 -14z"/>
<path d="M2840 5721 c0 -5 7 -12 16 -15 14 -5 15 -4 4 9 -14 17 -20 19 -20 6z"/>
<path d="M2942 5700 c0 -14 2 -19 5 -12 2 6 2 18 0 25 -3 6 -5 1 -5 -13z"/>
<path d="M7064 5691 c-30 -19 -121 -151 -104 -151 6 0 10 -6 10 -14 0 -8 8
-16 18 -18 13 -3 20 8 31 47 7 27 13 56 14 63 0 7 13 20 29 30 25 15 46 47 36
57 -2 3 -17 -4 -34 -14z"/>
<path d="M491 5684 c0 -11 3 -14 6 -6 3 7 2 16 -1 19 -3 4 -6 -2 -5 -13z"/>
<path d="M7834 5685 c-11 -27 2 -37 14 -11 7 16 8 26 1 26 -5 0 -12 -7 -15
-15z"/>
<path d="M911 5672 c-15 -30 -23 -74 -11 -67 5 3 10 15 10 26 0 10 4 19 10 19
14 0 23 -44 15 -71 -5 -14 -4 -19 4 -15 6 4 11 22 11 41 0 19 5 37 10 40 16
10 12 19 -15 32 -21 9 -27 8 -34 -5z"/>
<path d="M1137 5615 c66 -32 175 -59 143 -35 -50 35 -129 67 -169 67 l-43 0
69 -32z"/>
<path d="M2075 5640 c-3 -5 0 -10 8 -10 7 0 20 -11 27 -25 10 -18 21 -25 44
-25 23 0 27 3 16 9 -8 6 -17 8 -21 5 -4 -2 -16 6 -26 19 -24 30 -40 40 -48 27z"/>
<path d="M6327 5632 c-10 -10 -17 -27 -16 -38 0 -17 1 -17 9 2 5 12 19 29 32
38 16 11 18 16 7 16 -9 0 -23 -8 -32 -18z"/>
<path d="M7909 5624 c-8 -9 -22 -14 -37 -11 -22 4 -23 3 -8 -11 15 -15 18 -14
43 11 15 15 25 27 21 27 -3 0 -11 -7 -19 -16z"/>
<path d="M2520 5620 c0 -13 11 -13 30 0 12 8 11 10 -7 10 -13 0 -23 -4 -23
-10z"/>
<path d="M2640 5583 c0 -55 8 -53 15 5 3 25 1 42 -5 42 -5 0 -10 -21 -10 -47z"/>
<path d="M2959 5599 c-1 -13 0 -35 0 -49 1 -14 -2 -36 -7 -50 -8 -22 -9 -20
-16 19 -9 61 -28 41 -20 -22 4 -29 11 -57 16 -63 4 -6 6 -18 2 -27 -3 -8 -1
-18 5 -21 6 -4 7 -37 4 -84 -8 -109 -54 -161 -102 -118 -9 8 -29 17 -46 21
l-30 7 21 -19 c14 -12 21 -28 20 -48 -1 -25 -6 -31 -28 -33 -16 -2 -28 -9 -28
-18 0 -17 -51 -19 -67 -3 -5 5 -31 12 -57 15 -40 4 -50 1 -66 -18 -18 -22 -20
-22 -36 -6 -13 13 -15 20 -6 31 6 7 11 35 10 62 l-1 48 -13 -32 c-7 -17 -17
-31 -23 -31 -5 0 -16 -3 -24 -6 -8 -3 -27 7 -43 21 -19 18 -30 22 -33 14 -2
-7 5 -20 16 -28 10 -9 22 -24 26 -34 4 -10 11 -16 16 -12 20 12 21 -15 2 -34
-34 -34 -36 -66 -6 -122 14 -28 25 -53 23 -55 -2 -1 -21 13 -43 33 -42 38 -59
42 -203 46 -45 1 -82 -1 -82 -5 0 -5 9 -8 19 -8 11 0 23 -4 26 -10 3 -5 46
-10 94 -10 61 0 93 -4 107 -15 19 -14 18 -14 -3 -15 -13 0 -23 -6 -23 -13 0
-19 78 -92 98 -92 21 0 29 -44 11 -56 -10 -6 -9 -10 6 -15 11 -5 34 -21 50
-36 29 -27 63 -39 50 -18 -3 6 -13 10 -21 10 -8 0 -19 12 -24 26 -13 34 -13
34 13 35 16 1 18 2 5 6 -10 2 -18 10 -18 16 -1 12 -64 57 -80 57 -14 0 -41 50
-38 70 3 17 10 13 48 -25 43 -42 77 -62 49 -29 -11 14 -9 20 19 45 18 16 39
29 47 29 19 0 45 -39 45 -67 0 -15 5 -21 14 -17 10 4 16 -5 21 -25 8 -36 24
-49 36 -30 15 23 10 54 -11 77 -21 23 -26 42 -10 42 5 0 -4 21 -20 47 -34 54
-36 63 -14 63 21 0 84 -63 84 -84 0 -21 12 -20 55 4 20 11 44 20 54 20 26 0
63 64 55 95 -5 20 -1 27 20 36 14 7 26 20 26 30 0 10 4 20 9 23 10 7 21 -17
21 -45 0 -25 9 -24 45 6 29 24 29 26 9 31 -37 10 -56 67 -48 147 6 62 8 68 20
52 19 -26 29 -11 15 23 -15 35 -5 78 21 96 17 12 17 14 2 20 -12 5 -15 14 -11
39 l6 32 -15 -32 c-8 -18 -18 -33 -23 -33 -5 0 -9 30 -10 67 -1 64 -10 101
-12 52z m-108 -501 c4 -41 -20 -118 -36 -118 -3 0 -4 18 -3 40 1 26 6 40 15
40 9 0 11 8 7 25 -4 15 -2 25 5 25 6 0 11 -6 12 -12z m-146 -70 c5 -18 3 -28
-4 -28 -6 0 -11 4 -11 10 0 5 -15 17 -32 27 -31 16 -31 18 -10 21 12 2 22 9
22 15 0 20 28 -16 35 -45z m-100 22 c3 -5 2 -10 -4 -10 -5 0 -13 5 -16 10 -3
6 -2 10 4 10 5 0 13 -4 16 -10z m-42 -16 c22 -4 37 -12 37 -20 0 -8 -4 -14
-10 -14 -11 0 -54 -43 -84 -84 -23 -32 -38 -34 -27 -4 4 12 5 37 1 55 -5 22
-3 38 7 52 15 23 20 24 76 15z m227 -59 c0 -8 -7 -15 -15 -15 -16 0 -20 12 -8
23 11 12 23 8 23 -8z"/>
<path d="M2527 5013 c-4 -3 -7 -10 -7 -14 0 -11 29 -19 35 -10 6 11 -20 33
-28 24z"/>
<path d="M345 5600 c-3 -5 1 -10 9 -10 9 0 16 -4 16 -10 0 -5 9 -10 20 -10 21
0 28 24 10 35 -5 3 -10 1 -10 -5 0 -7 -6 -8 -19 0 -13 7 -22 7 -26 0z"/>
<path d="M1975 5590 c-4 -6 4 -10 18 -10 34 0 75 -35 79 -68 4 -24 5 -25 13
-8 10 22 -1 43 -36 67 -33 23 -66 32 -74 19z"/>
<path d="M2843 5593 c9 -2 25 -2 35 0 9 3 1 5 -18 5 -19 0 -27 -2 -17 -5z"/>
<path d="M1143 5568 c20 -19 52 -25 42 -8 -3 6 -14 10 -24 10 -9 0 -21 3 -27
8 -5 4 -1 -1 9 -10z"/>
<path d="M3054 5556 c23 -123 22 -333 -1 -396 -3 -8 -7 -49 -8 -90 -3 -69 -2
-72 10 -45 16 39 29 210 30 404 0 142 -1 154 -18 157 -16 2 -18 -2 -13 -30z"/>
<path d="M2476 5565 c-4 -10 -20 -15 -51 -15 -40 0 -47 -3 -58 -27 -6 -16 -15
-31 -19 -34 -5 -3 1 -23 12 -45 l19 -39 1 40 c0 37 3 42 34 53 30 11 96 64 96
77 0 12 -28 4 -34 -10z"/>
<path d="M6376 5564 c-4 -11 -13 -14 -28 -11 -14 4 -18 3 -11 -4 16 -16 57 -6
61 14 4 21 -14 23 -22 1z"/>
<path d="M441 5554 c0 -11 3 -14 6 -6 3 7 2 16 -1 19 -3 4 -6 -2 -5 -13z"/>
<path d="M330 5539 c0 -10 5 -21 10 -24 6 -3 10 -1 10 6 0 9 3 10 11 2 12 -12
59 -5 59 9 0 5 -9 6 -20 3 -14 -4 -20 -2 -20 8 0 9 -10 15 -25 15 -17 0 -25
-6 -25 -19z"/>
<path d="M1953 5543 c9 -2 23 -2 30 0 6 3 -1 5 -18 5 -16 0 -22 -2 -12 -5z"/>
<path d="M1310 5534 c0 -5 18 -8 40 -6 27 3 58 -3 90 -17 27 -12 59 -21 72
-21 25 0 74 -29 51 -30 -7 0 -13 -3 -13 -7 0 -5 20 -9 45 -10 54 -2 52 4 -12
36 -26 13 -60 30 -75 38 -33 16 -198 30 -198 17z"/>
<path d="M7072 5519 c-7 -10 -18 -19 -26 -19 -9 0 -13 -12 -12 -39 1 -37 2
-38 27 -29 38 13 54 47 36 80 -13 25 -14 25 -25 7z m3 -39 c3 -5 -1 -10 -9
-10 -9 0 -16 5 -16 10 0 6 4 10 9 10 6 0 13 -4 16 -10z"/>
<path d="M2240 5504 c0 -7 111 -114 118 -114 3 0 -4 10 -16 23 -12 13 -22 31
-22 39 0 9 -13 26 -29 37 -28 20 -51 27 -51 15z"/>
<path d="M2468 5498 c-60 -13 -62 -28 -5 -28 31 0 45 5 55 20 7 11 9 19 5 19
-5 -1 -29 -6 -55 -11z"/>
<path d="M355 5479 c-4 -5 -4 -22 0 -37 5 -20 8 -23 16 -11 12 19 12 59 0 59
-6 0 -13 -5 -16 -11z"/>
<path d="M6832 5460 c-8 -13 -8 -20 -2 -20 6 0 13 7 17 15 9 24 -1 27 -15 5z"/>
<path d="M310 5454 c0 -8 5 -12 10 -9 6 3 10 10 10 16 0 5 -4 9 -10 9 -5 0
-10 -7 -10 -16z"/>
<path d="M1480 5450 c20 -13 33 -13 25 0 -3 6 -14 10 -23 10 -15 0 -15 -2 -2
-10z"/>
<path d="M2550 5450 c0 -5 3 -10 8 -10 4 0 20 -11 36 -25 22 -19 32 -22 43
-14 10 9 4 16 -31 35 -50 27 -56 28 -56 14z"/>
<path d="M6880 5446 c-6 -6 -10 -16 -10 -23 0 -9 -9 -11 -30 -6 -19 3 -30 1
-30 -6 0 -6 6 -11 14 -11 8 0 16 -5 18 -11 4 -12 58 -1 58 12 0 5 7 9 16 9 10
0 14 6 10 15 -7 20 11 19 22 -1 7 -12 15 -14 43 -6 24 7 28 10 12 11 -12 1
-28 8 -36 16 -16 15 -72 16 -87 1z"/>
<path d="M2740 5435 c-7 -9 -10 -18 -7 -21 10 -11 37 5 37 21 0 19 -14 19 -30
0z"/>
<path d="M2819 5430 c-3 -48 -8 -65 -25 -77 -18 -14 -18 -15 0 -11 24 4 53 75
37 91 -8 8 -11 7 -12 -3z"/>
<path d="M2525 5420 c-3 -5 -1 -10 4 -10 6 0 11 5 11 10 0 6 -2 10 -4 10 -3 0
-8 -4 -11 -10z"/>
<path d="M7039 5396 c-16 -20 -34 -37 -69 -65 -21 -18 -23 -22 -10 -30 12 -8
16 -5 20 12 8 30 40 36 40 7 0 -18 3 -20 14 -11 12 10 15 7 18 -16 4 -27 5
-26 27 20 23 50 22 77 -3 77 -8 0 -16 5 -18 12 -3 7 -9 5 -19 -6z"/>
<path d="M1685 5390 c3 -5 8 -10 11 -10 2 0 4 5 4 10 0 6 -5 10 -11 10 -5 0
-7 -4 -4 -10z"/>
<path d="M6470 5390 c0 -8 -8 -10 -21 -7 -13 3 -19 1 -16 -6 4 -14 81 -27 97
-17 13 8 -5 24 -37 34 -15 5 -23 3 -23 -4z"/>
<path d="M6647 5377 c-38 -13 -55 -23 -48 -30 11 -11 5 -33 -21 -66 -24 -31
-8 -43 47 -34 49 7 135 43 135 56 0 6 -5 5 -12 -1 -7 -5 -34 -13 -61 -16 -39
-6 -48 -4 -54 10 -4 10 0 22 10 29 13 9 14 14 4 25 -10 10 -7 12 13 6 14 -3
28 -6 33 -6 4 0 7 -9 7 -20 0 -12 7 -20 18 -20 14 0 15 2 2 10 -13 9 -13 11 0
19 13 9 13 10 0 15 -45 14 -46 14 -29 15 9 1 19 8 23 16 6 18 7 18 -67 -8z"/>
<path d="M6362 5370 c-23 -14 -32 -26 -28 -36 3 -9 6 -22 6 -29 0 -7 13 -16
29 -20 16 -3 35 -13 41 -20 20 -24 70 -46 70 -31 0 7 11 18 25 24 21 10 24 16
19 42 -5 21 -3 30 6 30 8 0 10 3 7 6 -4 4 -13 1 -22 -6 -9 -7 -18 -10 -22 -7
-3 4 -12 2 -20 -5 -11 -8 -17 -7 -28 8 -13 17 -14 17 -15 2 0 -26 -19 -32 -41
-12 -25 22 -24 44 1 51 11 3 20 9 20 14 0 14 -12 11 -48 -11z"/>
<path d="M6944 5369 c-19 -21 -19 -21 9 -8 15 7 27 16 27 21 0 14 -16 9 -36
-13z"/>
<path d="M1675 5357 c-8 -26 -11 -87 -4 -87 12 0 21 38 14 60 -4 14 -2 20 8
20 8 0 18 -12 21 -26 4 -15 9 -24 12 -21 3 2 2 16 -1 30 -7 26 -44 44 -50 24z"/>
<path d="M2306 5339 c16 -20 31 -34 33 -32 3 2 -10 18 -29 36 l-34 32 30 -36z"/>
<path d="M2340 5349 c0 -5 5 -7 10 -4 6 3 10 8 10 11 0 2 -4 4 -10 4 -5 0 -10
-5 -10 -11z"/>
<path d="M2095 5340 c3 -5 8 -10 11 -10 2 0 4 5 4 10 0 6 -5 10 -11 10 -5 0
-7 -4 -4 -10z"/>
<path d="M2370 5342 c0 -14 112 -102 122 -96 10 6 -60 74 -76 74 -5 0 -18 7
-28 17 -10 9 -18 11 -18 5z"/>
<path d="M2450 5330 c0 -5 5 -10 10 -10 6 0 10 5 10 10 0 6 -4 10 -10 10 -5 0
-10 -4 -10 -10z"/>
<path d="M7792 5328 c-5 -7 -13 -24 -17 -38 -8 -25 -7 -25 13 -6 12 10 34 19
49 19 l27 0 -23 18 c-27 22 -35 23 -49 7z"/>
<path d="M6239 5309 l-24 -20 28 17 c15 9 27 18 27 20 0 8 -8 4 -31 -17z"/>
<path d="M2882 5300 c0 -14 2 -19 5 -12 2 6 2 18 0 25 -3 6 -5 1 -5 -13z"/>
<path d="M1753 5280 c4 -17 2 -20 -15 -14 -17 5 -20 3 -15 -11 4 -9 7 -19 7
-22 0 -3 7 0 15 7 16 13 30 7 30 -13 0 -7 8 -13 18 -15 23 -5 22 13 -4 54 -23
38 -44 45 -36 14z"/>
<path d="M2705 5254 c-8 -20 -15 -40 -15 -45 0 -15 30 -10 36 6 4 8 19 15 35
15 23 0 27 3 22 18 -8 20 -33 41 -50 42 -7 0 -20 -16 -28 -36z"/>
<path d="M6980 5271 c0 -5 -8 -8 -17 -7 -15 1 -18 -6 -16 -39 2 -25 0 -35 -6
-27 -6 11 -14 6 -31 -18 -28 -39 -22 -48 12 -18 14 13 34 28 44 34 18 10 18
12 1 28 -9 10 -17 22 -17 27 0 15 20 10 27 -7 5 -13 7 -13 14 -2 12 18 11 38
-1 38 -5 0 -10 -4 -10 -9z"/>
<path d="M1655 5215 c-5 -27 -9 -54 -10 -60 -1 -5 -6 -20 -13 -32 -7 -12 -12
-28 -12 -36 0 -8 -7 -20 -15 -27 -26 -21 -18 -57 18 -84 19 -15 38 -26 43 -26
5 -1 19 -9 32 -19 20 -18 21 -21 8 -48 -8 -15 -20 -46 -26 -68 -7 -22 -15 -46
-18 -54 -4 -11 -1 -11 17 -2 12 7 26 9 32 5 6 -3 20 4 31 16 14 15 27 20 44
16 27 -7 29 -3 13 25 -7 14 -16 18 -30 14 -25 -8 -24 6 2 39 l20 26 -20 0
c-12 0 -21 5 -21 10 0 6 -7 10 -15 10 -8 0 -15 5 -15 10 0 6 -7 10 -15 10 -8
0 -20 9 -27 20 -7 11 -18 20 -25 20 -14 0 -46 61 -37 69 4 3 9 0 11 -6 6 -16
32 -17 53 -3 11 8 8 9 -11 4 -32 -7 -48 12 -28 32 22 21 73 4 77 -27 2 -13 8
-39 13 -56 9 -30 14 -33 48 -33 71 0 69 64 -6 142 -19 19 -34 27 -48 24 -11
-3 -31 3 -45 14 l-25 19 28 26 c28 26 35 45 17 45 -5 0 -10 -5 -10 -12 0 -18
-17 3 -22 27 -2 12 -8 -1 -13 -30z m155 -202 c0 -15 -36 -18 -45 -4 -3 5 0 13
6 16 5 4 8 14 4 23 -5 13 -2 12 15 -3 11 -10 20 -24 20 -32z"/>
<path d="M2250 5255 c0 -3 10 -10 23 -15 12 -6 30 -16 40 -22 18 -14 49 -2 53
20 1 7 0 8 -3 2 -7 -14 -44 -12 -73 5 -26 15 -40 18 -40 10z"/>
<path d="M6285 5243 c-11 -3 -27 -11 -36 -19 -9 -8 -18 -11 -22 -8 -3 4 -27
-3 -52 -15 -24 -11 -52 -21 -60 -21 -9 0 -14 -4 -10 -10 3 -5 13 -6 22 -3 11
4 8 -2 -8 -20 -26 -30 -34 -34 -25 -12 9 25 -20 17 -51 -12 -16 -16 -38 -34
-48 -41 -18 -11 -16 -12 15 -7 19 3 51 8 70 11 47 7 96 30 120 56 12 14 20 17
20 9 0 -11 3 -11 15 -1 8 7 15 19 15 26 0 8 7 14 15 14 8 0 15 4 15 9 0 5 9
13 20 16 11 3 20 13 20 21 0 15 -2 15 -35 7z"/>
<path d="M1920 5230 c0 -5 6 -13 14 -17 7 -4 18 -18 25 -30 10 -21 41 -33 41
-17 0 7 -69 74 -76 74 -2 0 -4 -4 -4 -10z"/>
<path d="M6380 5231 c0 -5 -12 -14 -27 -19 -25 -9 -25 -11 -6 -11 12 -1 27 -9
33 -18 11 -17 11 -17 6 -1 -3 11 3 23 14 31 11 8 17 17 13 20 -10 10 -33 8
-33 -2z"/>
<path d="M7816 5223 c22 -16 39 -17 52 0 8 9 1 12 -30 13 -35 0 -38 -2 -22
-13z"/>
<path d="M7710 5221 c0 -6 9 -16 20 -24 14 -10 18 -20 13 -33 -6 -17 -5 -17
10 -6 9 8 13 20 10 29 -4 11 -2 14 5 9 7 -4 12 -1 12 8 0 21 -21 31 -31 15 -6
-10 -9 -11 -9 -1 0 6 -7 12 -15 12 -8 0 -15 -4 -15 -9z"/>
<path d="M1735 5207 c-27 -30 -28 -39 -6 -32 15 4 29 1 41 -10 10 -9 24 -14
29 -10 17 10 13 23 -9 30 -11 3 -20 13 -20 21 0 17 -21 18 -35 1z"/>
<path d="M2605 5209 c-10 -15 1 -23 20 -15 9 3 13 10 10 16 -8 13 -22 13 -30
-1z"/>
<path d="M297 5182 c-3 -4 9 -7 26 -7 25 0 32 -4 30 -19 -1 -11 2 -15 8 -9 17
17 -2 43 -31 43 -16 0 -31 -3 -33 -8z"/>
<path d="M6711 5186 c11 -9 69 -14 69 -6 0 6 -16 10 -37 10 -20 0 -34 -2 -32
-4z"/>
<path d="M5805 5155 c-22 -13 -37 -25 -33 -25 11 0 98 39 98 45 0 12 -27 3
-65 -20z"/>
<path d="M6340 5164 c0 -14 3 -14 15 -4 8 7 15 14 15 16 0 2 -7 4 -15 4 -8 0
-15 -7 -15 -16z"/>
<path d="M428 5154 c12 -8 22 -21 22 -29 0 -8 -10 -21 -22 -29 -26 -18 -20
-20 16 -6 16 6 26 17 26 29 0 24 -26 51 -48 51 -13 0 -12 -3 6 -16z"/>
<path d="M1844 5135 c-4 -10 -14 -14 -28 -10 -18 5 -19 4 -5 -7 18 -15 49 -75
49 -94 0 -10 5 -10 20 3 19 17 19 17 -6 50 -27 36 -19 42 32 23 41 -16 40 -5
-3 24 -44 30 -52 32 -59 11z"/>
<path d="M7675 5069 c-4 -6 -5 -12 -2 -15 7 -7 37 7 37 17 0 13 -27 11 -35 -2z"/>
<path d="M7556 5051 c-4 -7 -5 -15 -2 -18 9 -9 19 4 14 18 -4 11 -6 11 -12 0z"/>
<path d="M5311 4864 c-135 -90 -273 -188 -307 -217 -123 -103 -390 -327 -465
-389 -103 -86 -276 -238 -374 -327 -120 -111 -345 -252 -487 -305 -35 -13
-104 -43 -153 -65 -136 -63 -250 -98 -360 -111 -55 -6 -138 -18 -185 -25 -47
-8 -137 -19 -200 -26 -161 -16 -285 2 -475 72 -185 67 -221 87 -313 168 -101
89 -128 130 -136 206 -4 40 -18 83 -41 126 -19 37 -32 69 -30 71 3 2 7 22 9
44 2 21 7 56 11 76 l7 37 -40 -20 c-25 -12 -46 -32 -54 -50 -7 -16 -18 -27
-25 -25 -16 7 -26 -11 -16 -26 14 -24 12 -41 -10 -60 -22 -19 -22 -19 -1 -13
28 7 52 -19 29 -32 -12 -7 -14 -15 -7 -34 5 -13 13 -24 18 -24 5 0 8 -20 7
-45 -1 -24 2 -49 7 -55 11 -13 14 -102 5 -133 -6 -18 -4 -21 8 -16 9 3 13 12
11 19 -3 7 -1 16 4 19 14 8 52 -32 52 -56 0 -18 -4 -20 -38 -15 -23 4 -46 17
-61 34 l-24 28 7 -30 c8 -32 17 -41 59 -57 15 -5 27 -18 27 -27 0 -9 25 -41
55 -71 44 -43 53 -58 49 -77 -5 -19 -1 -25 22 -34 42 -16 85 -72 87 -113 2
-25 8 -38 24 -45 14 -6 20 -16 17 -25 -4 -10 2 -16 18 -18 15 -2 22 -9 22 -21
-2 -19 84 -89 126 -102 14 -4 59 -42 102 -84 135 -134 227 -206 354 -277 38
-20 86 -52 106 -70 20 -18 54 -42 75 -53 21 -10 54 -36 73 -56 19 -20 61 -55
92 -77 31 -22 59 -46 62 -53 6 -16 184 -134 261 -173 33 -16 100 -46 150 -67
49 -20 101 -45 115 -55 49 -35 146 -78 200 -89 30 -6 82 -20 115 -30 33 -11
94 -26 135 -34 41 -9 107 -27 145 -42 68 -26 139 -44 258 -67 45 -9 79 -9 145
1 135 19 241 24 307 13 36 -6 64 -7 70 -1 15 15 25 10 25 -13 1 -21 2 -22 14
-5 7 9 21 17 30 17 9 0 24 5 34 11 13 8 32 9 63 2 29 -6 55 -5 76 2 43 14 47
19 31 45 -12 19 -10 23 17 43 59 43 116 97 103 97 -7 0 -42 -16 -78 -35 -35
-19 -70 -35 -77 -35 -6 0 -16 -8 -22 -17 -5 -10 -13 -15 -17 -11 -4 4 -19 -1
-33 -11 -28 -20 -111 -35 -111 -20 0 5 -5 9 -11 9 -5 0 -7 -5 -4 -10 10 -16
-22 -11 -39 6 -17 17 -36 11 -36 -12 0 -8 -4 -14 -10 -14 -5 0 -10 4 -10 9 0
6 -20 13 -45 17 -25 3 -45 10 -45 15 0 17 -18 9 -23 -11 -6 -23 -21 -26 -38
-7 -7 7 -26 11 -46 9 -20 -3 -33 0 -33 7 0 14 -27 15 -32 1 -1 -5 -14 -7 -27
-3 -22 6 -23 7 -6 19 16 12 12 13 -27 12 -25 0 -52 3 -59 7 -11 6 -12 5 -1 -6
6 -7 12 -16 12 -20 0 -10 -85 15 -131 39 -29 15 -33 21 -22 28 10 6 -5 9 -47
10 -44 1 -60 -2 -56 -11 2 -7 -10 -5 -32 7 -20 10 -43 18 -50 18 -8 0 -12 6
-8 15 6 18 9 17 -79 21 -86 3 -222 42 -307 88 -34 19 -73 37 -86 41 -42 12
-171 91 -192 117 -32 41 -123 96 -184 112 -44 12 -72 29 -121 71 -35 31 -72
73 -82 93 -20 41 -142 130 -180 131 -13 1 -24 9 -28 21 -3 11 -13 20 -21 20
-11 0 -13 -6 -9 -20 5 -16 2 -20 -19 -20 -29 0 -96 29 -96 42 0 4 10 8 23 8
39 0 97 21 97 34 0 8 -15 23 -32 35 -18 11 -52 34 -76 52 -33 23 -60 33 -109
39 -91 11 -96 25 -13 32 41 4 43 20 3 30 -199 51 -237 57 -191 32 16 -8 28
-18 28 -23 0 -4 12 -13 26 -20 26 -11 26 -12 8 -26 -23 -16 -16 -25 28 -34 24
-5 33 -12 33 -26 0 -32 -29 -28 -76 11 -24 20 -57 41 -72 46 -20 7 -26 15 -22
27 4 13 -7 23 -45 41 -49 23 -80 55 -80 83 0 15 -62 61 -96 71 -11 3 -44 18
-74 34 -43 21 -56 34 -64 60 -6 24 -22 40 -53 58 -23 14 -43 32 -43 38 0 7
-18 20 -40 29 -38 15 -56 47 -27 47 30 0 116 -31 128 -47 21 -24 131 -74 151
-67 11 3 18 0 18 -9 0 -21 41 -53 85 -67 22 -7 53 -19 68 -27 16 -8 86 -18
165 -24 336 -25 331 -25 320 -12 -6 8 -35 13 -77 12 -95 -1 -252 20 -279 38
-13 8 -30 12 -37 9 -8 -3 -17 -1 -20 4 -10 17 81 23 116 8 64 -28 104 -35 169
-31 109 7 174 3 198 -13 12 -8 20 -19 17 -24 -4 -6 23 -9 67 -8 l73 1 -65 7
c-70 7 -75 11 -21 15 18 2 40 11 50 20 15 17 15 17 -4 10 -38 -15 -63 -17 -69
-6 -4 6 -20 11 -35 11 -16 0 -41 10 -56 22 -24 19 -45 22 -189 29 -133 6 -173
12 -231 33 -46 16 -100 26 -156 29 -90 5 -149 25 -173 58 -7 10 -15 16 -19 13
-11 -11 -98 28 -93 42 7 17 -34 30 -44 14 -6 -10 -15 -6 -34 13 -14 14 -26 31
-26 36 0 6 -18 20 -40 31 -45 23 -52 35 -16 26 16 -4 26 -1 29 8 4 10 16 13
34 11 15 -2 34 -4 40 -4 7 -1 15 -12 19 -26 3 -14 12 -25 18 -25 7 0 18 -6 24
-12 7 -7 20 -13 30 -13 10 0 18 -9 20 -23 4 -25 36 -42 80 -42 15 0 86 -20
157 -44 183 -62 251 -71 471 -59 99 6 189 15 200 21 12 6 79 16 150 22 164 14
244 39 550 177 259 117 347 174 505 326 117 112 240 219 463 403 93 76 223
186 290 243 149 129 190 159 427 316 158 105 215 146 197 145 -2 0 -113 -75
-247 -166z m-3561 -869 c-7 -9 -15 -13 -19 -10 -3 3 1 10 9 15 21 14 24 12 10
-5z m635 -696 c22 -7 33 -14 25 -16 -22 -5 -122 41 -140 63 -11 14 -4 12 30
-8 25 -14 63 -31 85 -39z m-105 11 c0 -5 -4 -10 -10 -10 -5 0 -10 5 -10 10 0
6 5 10 10 10 6 0 10 -4 10 -10z m1875 -1240 c3 -5 -1 -10 -9 -10 -9 0 -16 5
-16 10 0 6 4 10 9 10 6 0 13 -4 16 -10z m172 -66 c-3 -3 -12 -4 -19 -1 -8 3
-5 6 6 6 11 1 17 -2 13 -5z m543 -94 c0 -5 -7 -10 -15 -10 -8 0 -15 5 -15 10
0 6 7 10 15 10 8 0 15 -4 15 -10z"/>
<path d="M2910 5010 c0 -5 5 -10 11 -10 5 0 7 5 4 10 -3 6 -8 10 -11 10 -2 0
-4 -4 -4 -10z"/>
<path d="M7621 4991 c-6 -4 -9 -15 -6 -23 4 -11 -1 -18 -15 -23 -15 -5 -19
-10 -12 -17 14 -14 55 1 48 18 -3 8 1 14 9 14 7 0 16 4 19 8 7 12 -29 31 -43
23z"/>
<path d="M2933 4955 c5 -37 51 -95 65 -80 4 4 1 10 -5 12 -7 3 -13 10 -13 18
0 7 -7 18 -15 25 -8 7 -15 21 -15 31 0 10 -5 21 -10 24 -7 4 -9 -7 -7 -30z"/>
<path d="M3037 4976 c-4 -10 -5 -21 -2 -24 9 -9 17 6 13 25 -3 17 -4 17 -11
-1z"/>
<path d="M2000 4965 c0 -19 61 -48 74 -35 5 5 5 17 1 27 -8 17 -8 17 -12 1 -5
-19 -12 -22 -37 -12 -9 3 -14 10 -11 14 3 5 1 11 -5 15 -5 3 -10 -1 -10 -10z"/>
<path d="M6935 4899 c4 -56 3 -69 -9 -69 -11 0 -13 -8 -9 -35 5 -29 1 -38 -26
-60 -17 -15 -31 -33 -31 -41 0 -7 -20 -28 -43 -46 -52 -39 -70 -70 -53 -93 10
-15 15 -14 39 9 16 14 32 26 38 26 5 0 9 9 9 20 0 21 38 37 65 26 13 -4 13 -2
5 14 -13 25 -14 23 14 54 19 23 24 25 29 12 4 -9 13 -16 22 -16 20 0 19 9 -2
33 -10 11 -19 37 -20 61 -1 22 -5 54 -9 69 -5 23 -3 29 15 34 25 6 24 3 9 39
-7 16 -21 30 -31 30 -15 2 -16 -6 -12 -67z m15 -125 c0 -8 -5 -12 -10 -9 -6 4
-8 11 -5 16 9 14 15 11 15 -7z"/>
<path d="M1844 4948 c-4 -6 -2 -14 4 -16 7 -2 12 -10 12 -18 0 -16 16 -19 25
-4 7 11 -12 50 -25 50 -5 0 -12 -5 -16 -12z"/>
<path d="M2113 4953 c-7 -3 -13 -9 -13 -15 0 -6 7 -7 16 -4 8 3 24 1 35 -4 21
-12 27 4 7 17 -16 9 -30 11 -45 6z"/>
<path d="M6870 4949 c0 -5 5 -7 10 -4 6 3 10 8 10 11 0 2 -4 4 -10 4 -5 0 -10
-5 -10 -11z"/>
<path d="M2099 4894 c25 -35 84 -50 128 -33 14 5 30 5 41 -1 21 -12 125 -60
129 -60 14 0 -5 25 -47 60 -43 36 -56 42 -97 42 -26 0 -50 4 -53 8 -3 5 -24 4
-48 -2 -33 -8 -46 -8 -59 3 -10 9 -8 2 6 -17z m81 -14 c0 -5 -4 -10 -10 -10
-5 0 -10 5 -10 10 0 6 5 10 10 10 6 0 10 -4 10 -10z"/>
<path d="M2803 4900 c-7 -10 -10 -27 -7 -37 5 -15 4 -16 -6 -3 -9 11 -13 12
-17 2 -2 -6 -9 -10 -14 -7 -5 4 -19 -3 -31 -14 -12 -12 -17 -21 -10 -21 6 0
14 5 17 10 11 17 25 11 25 -12 0 -20 1 -20 18 -5 10 10 27 17 38 17 11 0 30 7
43 17 23 16 25 15 52 -18 27 -33 42 -95 36 -144 -1 -15 3 -19 20 -17 12 2 31
-2 41 -7 19 -10 20 -7 20 53 0 69 -3 77 -33 94 -17 10 -18 11 -2 12 9 0 17 4
17 8 0 11 -30 37 -52 45 -10 4 -18 13 -18 22 0 11 -10 14 -42 13 -24 -1 -37
-3 -30 -6 20 -6 13 -32 -9 -32 -16 0 -20 5 -16 19 4 16 -9 31 -26 31 -1 0 -8
-9 -14 -20z m138 -35 c-1 -15 -24 -12 -29 3 -3 9 2 13 12 10 10 -1 17 -7 17
-13z"/>
<path d="M7720 4869 c0 -11 5 -17 10 -14 6 3 10 13 10 21 0 8 -4 14 -10 14 -5
0 -10 -9 -10 -21z"/>
<path d="M1918 4838 c-29 -30 -38 -77 -15 -79 6 -1 22 0 34 1 12 1 32 -4 44
-10 15 -8 19 -9 15 -1 -4 6 -20 18 -37 26 -27 14 -40 48 -21 58 11 6 72 -12
72 -22 0 -5 21 -19 46 -31 34 -17 48 -20 57 -11 6 6 23 11 38 11 15 0 31 5 35
12 5 8 -5 9 -37 5 -24 -3 -45 -10 -47 -16 -3 -10 -8 -7 -45 25 -7 5 -20 13
-30 17 -11 4 -21 15 -24 25 -7 29 -53 23 -85 -10z"/>
<path d="M2056 4863 c-12 -12 -5 -23 14 -23 11 0 20 4 20 9 0 11 -26 22 -34
14z"/>
<path d="M1820 4849 c0 -5 5 -7 10 -4 6 3 10 8 10 11 0 2 -4 4 -10 4 -5 0 -10
-5 -10 -11z"/>
<path d="M7642 4853 c-9 -4 -11 -22 -6 -71 8 -86 20 -108 28 -56 8 53 -5 132
-22 127z"/>
<path d="M7727 4820 c-3 -11 -1 -22 3 -25 10 -6 1 -86 -12 -102 -5 -6 -19 -13
-31 -15 -18 -3 -19 -4 -6 -10 10 -4 31 4 54 19 35 24 37 28 33 68 -3 24 -12
52 -20 64 -15 22 -15 22 -21 1z"/>
<path d="M2596 4812 c-3 -6 -1 -14 5 -17 15 -10 25 3 12 16 -7 7 -13 7 -17 1z"/>
<path d="M7181 4808 c-2 -16 23 -57 37 -63 16 -6 42 11 42 27 0 6 -6 6 -14 -1
-18 -15 -41 -5 -54 22 -6 12 -11 19 -11 15z"/>
<path d="M2570 4790 c0 -5 5 -10 11 -10 5 0 7 5 4 10 -3 6 -8 10 -11 10 -2 0
-4 -4 -4 -10z"/>
<path d="M7423 4786 c22 -17 22 -42 0 -55 -10 -5 -15 -13 -11 -16 9 -9 68 33
68 47 0 16 -32 37 -55 37 -19 0 -19 0 -2 -13z"/>
<path d="M1850 4779 c0 -5 5 -7 10 -4 6 3 10 8 10 11 0 2 -4 4 -10 4 -5 0 -10
-5 -10 -11z"/>
<path d="M2720 4777 c0 -10 8 -17 18 -17 9 0 13 4 7 8 -5 4 -13 11 -17 16 -5
5 -8 2 -8 -7z"/>
<path d="M2860 4776 c0 -4 6 -22 14 -40 8 -19 13 -49 12 -69 -1 -32 18 -66 27
-49 12 22 16 62 6 62 -6 0 -9 7 -5 15 6 17 -24 77 -42 83 -7 2 -12 1 -12 -2z"/>
<path d="M7087 4749 c4 -13 8 -18 11 -10 2 7 -1 18 -6 23 -8 8 -9 4 -5 -13z"/>
<path d="M1403 4736 c-17 -14 -36 -39 -43 -56 -11 -27 -11 -32 6 -45 26 -19
86 -28 134 -20 43 7 48 1 25 -29 -20 -27 -19 -50 5 -71 11 -10 20 -28 20 -40
0 -12 16 -35 36 -53 32 -29 54 -40 54 -27 0 13 -25 55 -33 55 -15 0 39 40 55
40 8 1 6 6 -6 15 -11 8 -17 15 -13 15 4 0 3 9 -4 21 -8 15 -14 18 -22 10 -13
-13 -47 -15 -47 -2 0 5 10 13 22 17 l21 6 -24 15 c-23 14 -23 14 14 10 20 -1
37 1 37 5 0 4 -4 8 -10 8 -5 0 -10 6 -10 14 0 7 -7 19 -15 26 -9 7 -13 20 -10
29 3 11 -6 28 -25 46 -23 22 -41 29 -83 33 -46 4 -57 1 -84 -22z m131 -7 c33
-26 37 -79 6 -79 -26 0 -99 46 -107 66 -14 36 59 46 101 13z m-94 -49 c0 -5
-2 -10 -4 -10 -3 0 -8 5 -11 10 -3 6 -1 10 4 10 6 0 11 -4 11 -10z"/>
<path d="M2600 4753 c0 -5 9 -14 20 -21 11 -7 20 -8 20 -2 0 5 -9 14 -20 20
-11 6 -20 7 -20 3z"/>
<path d="M2680 4734 c0 -8 5 -12 10 -9 6 3 10 10 10 16 0 5 -4 9 -10 9 -5 0
-10 -7 -10 -16z"/>
<path d="M1844 4726 c-14 -11 -23 -11 -32 -4 -9 8 -16 8 -25 -2 -9 -10 -9 -14
2 -17 9 -4 10 -7 2 -12 -21 -14 18 -71 60 -87 38 -16 69 -57 69 -93 0 -9 7 -4
15 13 21 40 20 43 -23 70 -39 24 -39 25 -34 79 5 59 -5 74 -34 53z"/>
<path d="M2036 4731 c-6 -9 -24 -11 -67 -6 -62 7 -84 -8 -29 -20 33 -7 39 -19
14 -29 -14 -6 -13 -9 7 -27 12 -11 29 -17 36 -15 8 3 17 -2 20 -12 13 -32 73
-69 73 -44 0 16 -79 92 -97 93 -16 0 -16 1 2 9 33 14 44 11 50 -13 6 -24 56
-52 77 -44 7 3 2 6 -11 6 -16 1 -21 5 -17 16 3 8 -4 21 -15 29 -11 7 -24 26
-28 42 -5 20 -10 24 -15 15z"/>
<path d="M2710 4721 c0 -11 -3 -26 -6 -35 -5 -12 0 -16 17 -16 29 0 13 -17
-21 -22 -20 -2 -26 2 -31 27 -6 25 -7 26 -8 6 -1 -17 -5 -21 -17 -17 -24 9
-37 -3 -22 -22 11 -13 10 -14 -14 -8 -23 5 -28 3 -28 -13 0 -10 -8 -22 -17
-25 -16 -6 -35 -16 -71 -39 -11 -7 -10 -11 3 -20 13 -10 13 -17 3 -46 -13 -33
-13 -33 -65 -28 -67 7 -82 16 -58 34 20 14 19 14 -32 17 -36 2 -58 16 -25 16
18 0 42 25 42 44 0 3 -17 4 -37 3 -36 -2 -38 -4 -38 -34 0 -20 -5 -33 -12 -33
-7 0 -13 6 -13 14 0 14 -46 11 -66 -6 -8 -5 -18 -3 -28 7 -19 20 -21 35 -3 35
6 0 23 9 37 20 l25 19 -42 -2 c-32 -1 -42 -5 -40 -17 1 -10 -8 -16 -30 -18
-35 -3 -45 -25 -17 -36 13 -5 15 -15 10 -49 -6 -41 -5 -43 25 -54 38 -14 60
-3 52 26 -7 26 25 34 96 26 56 -6 111 -39 111 -65 0 -6 7 -10 15 -10 8 0 15 5
15 10 0 6 24 10 54 10 49 0 54 -2 54 -22 1 -13 4 -38 8 -55 5 -26 11 -33 30
-33 19 0 24 -5 24 -24 0 -34 -26 -57 -56 -50 -14 4 -24 2 -24 -5 0 -21 51 -11
75 15 35 38 40 75 16 126 -16 33 -20 36 -16 15 4 -21 2 -28 -7 -25 -7 3 -14
20 -16 39 -2 19 -11 42 -19 51 -8 10 -13 24 -10 31 3 8 0 20 -6 26 -9 9 -6 17
13 31 31 24 39 25 55 3 9 -12 28 -17 66 -18 50 0 53 1 54 25 0 18 6 26 23 28
18 3 21 8 16 28 -9 34 2 30 20 -8 20 -39 20 -47 0 -69 -15 -17 -14 -19 10 -25
26 -6 39 -5 136 15 50 10 100 57 100 94 0 18 -2 19 -10 7 -5 -8 -10 -22 -10
-30 0 -8 -18 -24 -40 -34 -37 -18 -44 -18 -87 -5 -42 13 -46 17 -47 46 -1 25
2 29 12 20 10 -8 16 -7 22 4 7 10 2 18 -16 27 -27 14 -44 9 -44 -14 0 -19 -19
-18 -26 1 -4 8 -9 13 -13 10 -4 -2 -13 18 -20 45 -13 50 -31 68 -31 31z m0
-127 c0 -17 -22 -14 -28 4 -2 7 3 12 12 12 9 0 16 -7 16 -16z m-482 -93 c3 -8
-1 -12 -9 -9 -7 2 -15 10 -17 17 -3 8 1 12 9 9 7 -2 15 -10 17 -17z"/>
<path d="M2128 4719 c-21 -12 -24 -41 -4 -33 7 3 39 -7 71 -21 31 -15 59 -24
62 -21 11 11 -28 58 -43 52 -8 -3 -13 -2 -10 3 3 5 -2 11 -12 14 -9 2 -24 7
-32 11 -8 3 -23 1 -32 -5z"/>
<path d="M7345 4694 l-30 -25 33 16 c17 8 32 20 32 25 0 14 -1 13 -35 -16z"/>
<path d="M1694 4679 c-19 -21 -19 -21 6 -18 14 2 26 12 28 22 5 23 -11 22 -34
-4z"/>
<path d="M7026 4685 c-9 -23 -8 -25 9 -25 17 0 19 9 6 28 -7 11 -10 10 -15 -3z"/>
<path d="M7235 4680 c-3 -5 -2 -10 3 -10 15 0 22 -42 10 -57 -8 -10 -6 -13 10
-13 26 0 31 15 18 57 -11 32 -29 43 -41 23z"/>
<path d="M1628 4653 c7 -3 16 -2 19 1 4 3 -2 6 -13 5 -11 0 -14 -3 -6 -6z"/>
<path d="M2353 4645 c2 -5 23 -11 46 -13 55 -4 46 14 -9 20 -25 2 -39 0 -37
-7z"/>
<path d="M2387 4593 c-12 -11 -8 -20 17 -31 17 -7 27 -7 35 1 13 13 15 31 2
22 -5 -3 -12 -1 -16 5 -7 11 -28 13 -38 3z"/>
<path d="M1789 4557 c7 -10 20 -17 27 -17 8 0 14 -5 14 -10 0 -6 -6 -10 -13
-8 -7 2 -14 -1 -16 -7 -2 -5 -7 -20 -12 -31 -4 -12 -5 -24 -3 -27 8 -7 44 25
39 34 -3 4 2 13 11 20 13 10 17 10 24 -1 5 -8 12 -11 16 -7 10 10 -42 56 -74
64 -24 6 -26 5 -13 -10z"/>
<path d="M1172 4543 c-12 -2 -20 -9 -17 -14 4 -5 14 -5 26 1 25 14 59 -4 59
-31 0 -18 -5 -21 -29 -17 -24 4 -31 0 -35 -18 -7 -28 -34 -37 -81 -28 -26 5
-39 14 -46 31 -12 33 -7 39 42 47 23 4 39 9 36 12 -3 3 -33 0 -66 -7 -60 -11
-61 -12 -44 -31 17 -19 17 -21 -7 -40 -16 -13 -35 -18 -55 -16 -16 3 -43 1
-60 -3 -19 -4 5 -7 65 -7 52 0 107 -4 121 -10 30 -12 84 -3 120 21 37 25 83
77 67 77 -7 0 -21 9 -31 20 -17 20 -22 21 -65 13z"/>
<path d="M1672 4528 c3 -7 20 -14 39 -16 l34 -2 -25 15 c-31 18 -53 19 -48 3z"/>
<path d="M6860 4520 c-14 -11 -20 -20 -14 -20 7 0 22 9 35 20 31 25 12 26 -21
0z"/>
<path d="M861 4526 c10 -10 89 -23 94 -16 2 4 -12 10 -33 14 -44 7 -67 8 -61
2z"/>
<path d="M2585 4493 c-38 -42 -30 -52 10 -13 19 19 35 35 35 37 0 11 -23 -1
-45 -24z"/>
<path d="M6715 4481 c-4 -19 -14 -40 -23 -47 -14 -10 -17 -31 -18 -103 0 -50
3 -91 6 -91 4 0 10 37 13 82 4 63 12 94 35 139 26 51 28 57 12 56 -13 -1 -21
-12 -25 -36z"/>
<path d="M8016 4505 c-7 -20 7 -56 33 -79 19 -17 24 -18 58 -5 32 13 38 20 41
48 3 32 2 33 -13 17 -10 -9 -33 -16 -56 -16 -35 0 -39 3 -39 25 0 28 -15 34
-24 10z"/>
<path d="M812 4498 c-17 -17 -15 -35 4 -42 8 -3 12 -2 9 4 -3 5 -1 19 5 30 12
22 1 27 -18 8z"/>
<path d="M1927 4473 c5 -12 2 -15 -10 -10 -13 5 -17 1 -17 -18 0 -28 14 -32
36 -10 12 11 12 19 4 35 -13 24 -22 27 -13 3z"/>
<path d="M6795 4479 c-9 -14 -2 -20 14 -10 8 6 9 11 3 15 -6 3 -14 1 -17 -5z"/>
<path d="M2021 4454 c0 -11 3 -14 6 -6 3 7 2 16 -1 19 -3 4 -6 -2 -5 -13z"/>
<path d="M1775 4423 c-8 -26 -16 -28 -33 -11 -8 8 -12 9 -12 1 0 -6 -7 -19
-16 -27 -8 -9 -12 -20 -9 -26 8 -13 38 -13 52 1 8 8 13 2 18 -21 9 -42 -13
-59 -36 -28 -17 22 -42 17 -32 -7 3 -10 -1 -15 -13 -15 -15 -1 -13 -4 9 -16
41 -22 35 -51 -13 -64 -28 -8 -38 -15 -34 -25 7 -18 24 -20 24 -2 1 7 6 5 14
-6 13 -16 14 -16 20 8 4 14 13 25 22 25 10 0 14 8 12 28 -3 26 -1 27 42 25 35
-1 40 1 23 7 -20 8 -22 13 -12 37 5 15 15 33 21 40 8 10 7 12 -6 7 -9 -3 -16
-2 -16 4 0 5 7 12 15 16 21 8 19 26 -4 26 -12 0 -21 8 -24 23 l-4 22 -8 -22z"/>
<path d="M2060 4429 c0 -5 5 -7 10 -4 6 3 10 8 10 11 0 2 -4 4 -10 4 -5 0 -10
-5 -10 -11z"/>
<path d="M2277 4408 c16 -18 41 -52 53 -75 28 -50 110 -106 149 -101 23 3 20
5 -19 19 -34 12 -45 21 -45 37 0 11 -4 24 -7 27 -4 4 -4 13 -1 21 6 17 -9 18
-25 2 -9 -9 -23 1 -63 45 -28 31 -56 57 -62 57 -6 0 3 -15 20 -32z"/>
<path d="M7285 4410 c-3 -11 -2 -28 4 -37 9 -16 10 -16 11 3 0 28 23 46 45 37
13 -4 16 -3 11 5 -12 20 -64 14 -71 -8z"/>
<path d="M727 4375 c-22 -21 -25 -30 -17 -45 14 -26 24 -25 17 1 -7 28 25 59
63 59 28 0 44 -23 21 -32 -12 -4 -24 -48 -14 -48 15 0 53 40 53 55 0 40 -83
46 -123 10z"/>
<path d="M1570 4324 c0 -8 5 -12 10 -9 6 3 10 10 10 16 0 5 -4 9 -10 9 -5 0
-10 -7 -10 -16z"/>
<path d="M1891 4324 c0 -11 3 -14 6 -6 3 7 2 16 -1 19 -3 4 -6 -2 -5 -13z"/>
<path d="M2445 4316 c-18 -13 -18 -14 3 -20 12 -4 31 -4 43 -1 19 7 20 7 2 21
-23 17 -25 17 -48 0z"/>
<path d="M7325 4310 c-8 -25 11 -60 33 -60 13 0 12 4 -8 20 -22 17 -23 22 -12
40 7 11 8 20 3 20 -5 0 -12 -9 -16 -20z"/>
<path d="M1617 4244 c-4 -4 -7 -19 -7 -33 l0 -25 16 23 c15 21 7 51 -9 35z"/>
<path d="M1820 4229 c0 -5 5 -7 10 -4 6 3 10 8 10 11 0 2 -4 4 -10 4 -5 0 -10
-5 -10 -11z"/>
<path d="M8048 4218 c17 -8 26 -8 34 0 9 9 4 12 -22 11 -33 0 -34 -1 -12 -11z"/>
<path d="M6623 4165 c0 -22 2 -30 4 -17 2 12 2 30 0 40 -3 9 -5 -1 -4 -23z"/>
<path d="M1553 4174 c-3 -8 -1 -20 5 -27 5 -6 10 -24 10 -39 -1 -32 18 -58 40
-58 13 0 12 -3 -3 -20 -19 -20 -41 -28 -30 -10 11 18 -11 10 -30 -10 -18 -19
-17 -20 3 -20 27 0 75 21 85 37 5 8 12 11 17 8 17 -11 20 14 3 27 -10 7 -18
19 -19 26 -1 6 -2 27 -2 45 -2 29 -7 35 -38 45 -29 8 -36 8 -41 -4z"/>
<path d="M6675 4126 c3 -38 10 -77 15 -85 6 -10 7 10 3 54 -3 39 -10 77 -15
85 -6 10 -7 -10 -3 -54z"/>
<path d="M1670 4134 c0 -8 5 -12 10 -9 6 3 10 10 10 16 0 5 -4 9 -10 9 -5 0
-10 -7 -10 -16z"/>
<path d="M7950 4140 c-8 -5 -12 -12 -9 -15 4 -3 12 1 19 10 14 17 11 19 -10 5z"/>
<path d="M4505 4001 c-38 -23 -72 -61 -56 -61 17 0 78 47 85 66 7 18 7 18 -29
-5z"/>
<path d="M7292 3988 c-14 -14 -16 -28 -3 -28 5 0 11 9 14 20 6 23 5 24 -11 8z"/>
<path d="M1624 3982 c-10 -6 -44 -91 -44 -108 0 -3 6 -4 12 -2 7 3 13 14 13
26 0 12 5 21 10 19 6 -1 9 -5 8 -9 -2 -5 3 -8 11 -8 21 0 25 23 7 37 -13 9
-14 14 -3 24 22 23 12 38 -14 21z"/>
<path d="M7710 3975 c-7 -9 -11 -17 -9 -18 2 -2 17 -13 33 -25 16 -12 40 -22
55 -21 l26 1 -28 11 c-16 7 -25 16 -22 24 3 7 8 20 11 28 8 21 -49 20 -66 0z"/>
<path d="M7812 3968 c3 -7 15 -15 27 -16 16 -3 22 1 19 10 -3 7 -15 15 -27 16
-16 3 -22 -1 -19 -10z"/>
<path d="M7660 3940 c-8 -5 -10 -10 -5 -10 6 0 17 5 25 10 8 5 11 10 5 10 -5
0 -17 -5 -25 -10z"/>
<path d="M7359 3924 c-7 -9 -21 -13 -32 -10 -14 3 -17 2 -9 -6 13 -13 48 -2
56 17 7 19 2 19 -15 -1z"/>
<path d="M6735 3889 c21 -59 69 -137 116 -189 35 -39 39 -41 26 -14 -9 17 -23
37 -32 44 -27 22 -93 129 -100 161 -4 16 -11 31 -15 34 -5 3 -3 -13 5 -36z"/>
<path d="M1302 3898 c3 -7 13 -15 24 -17 16 -3 17 -1 5 13 -16 19 -34 21 -29
4z"/>
<path d="M1523 3894 c-3 -8 -1 -20 6 -27 8 -8 11 -4 11 16 0 30 -7 35 -17 11z"/>
<path d="M7490 3860 c-12 -18 -16 -30 -10 -30 7 0 9 -7 6 -16 -6 -15 -4 -15
16 -2 26 17 43 78 22 78 -7 0 -22 -13 -34 -30z"/>
<path d="M7590 3880 c0 -5 7 -10 16 -10 8 0 12 5 9 10 -3 6 -10 10 -16 10 -5
0 -9 -4 -9 -10z"/>
<path d="M7547 3838 c-4 -12 -4 -24 -1 -27 6 -7 24 20 24 37 0 21 -17 13 -23
-10z"/>
<path d="M1545 3793 c17 -41 44 -74 30 -38 -4 11 -12 32 -17 48 -5 15 -14 27
-19 27 -5 0 -2 -17 6 -37z"/>
<path d="M1590 3820 c0 -5 5 -10 10 -10 6 0 10 5 10 10 0 6 -4 10 -10 10 -5 0
-10 -4 -10 -10z"/>
<path d="M4228 3779 l-33 -31 33 19 c38 21 61 43 43 43 -6 0 -25 -14 -43 -31z"/>
<path d="M7358 3793 c-29 -34 -31 -43 -7 -35 12 5 24 18 26 30 4 27 1 27 -19
5z"/>
<path d="M7565 3790 c4 -6 11 -8 16 -5 14 9 11 15 -7 15 -8 0 -12 -5 -9 -10z"/>
<path d="M1383 3715 c15 -15 27 -34 27 -42 0 -7 11 -18 24 -23 27 -10 46 -52
27 -58 -6 -2 -11 -8 -11 -12 0 -5 14 -4 30 1 30 11 41 29 18 29 -9 0 -9 3 0
12 7 7 12 15 12 19 0 15 -97 88 -126 95 l-29 7 28 -28z"/>
<path d="M4303 3706 c-231 -141 -264 -156 -276 -123 -6 18 -91 -29 -129 -72
-16 -18 -27 -35 -25 -37 2 -2 51 18 108 45 57 26 122 54 144 61 22 7 53 19 69
27 32 17 176 121 176 128 0 9 -16 3 -67 -29z"/>
<path d="M7190 3710 c0 -19 3 -21 12 -12 9 9 9 15 0 24 -9 9 -12 7 -12 -12z"/>
<path d="M7570 3704 c0 -8 5 -12 10 -9 6 4 8 11 5 16 -9 14 -15 11 -15 -7z"/>
<path d="M7407 3703 c-4 -3 -7 -11 -7 -17 0 -6 5 -5 12 2 6 6 9 14 7 17 -3 3
-9 2 -12 -2z"/>
<path d="M4075 3676 c-42 -19 -71 -43 -63 -51 8 -8 98 45 98 58 0 9 1 9 -35
-7z"/>
<path d="M7363 3677 c4 -10 0 -20 -11 -26 -14 -8 -15 -12 -4 -23 11 -11 15
-10 25 3 13 17 17 19 42 19 8 0 15 5 15 11 0 6 -6 9 -14 6 -7 -3 -24 2 -37 11
-21 14 -22 14 -16 -1z"/>
<path d="M7535 3661 c-3 -6 3 -15 14 -21 13 -7 22 -7 26 0 10 16 28 12 22 -4
-4 -11 -1 -13 10 -9 14 5 13 9 -7 25 -24 19 -55 24 -65 9z"/>
<path d="M7310 3649 c0 -5 5 -7 10 -4 6 3 10 8 10 11 0 2 -4 4 -10 4 -5 0 -10
-5 -10 -11z"/>
<path d="M1626 3620 c10 -18 23 -30 36 -30 18 0 17 3 -9 30 -15 17 -31 30 -35
30 -3 0 0 -13 8 -30z"/>
<path d="M7115 3641 c-3 -6 -17 -8 -29 -5 -19 4 -24 1 -28 -20 -7 -37 2 -76
18 -76 8 0 14 5 14 10 0 6 7 10 15 10 17 0 20 16 5 25 -20 12 -9 25 21 25 24
0 30 4 27 17 -4 20 -33 29 -43 14z"/>
<path d="M7190 3630 c0 -5 4 -10 9 -10 6 0 13 5 16 10 3 6 -1 10 -9 10 -9 0
-16 -4 -16 -10z"/>
<path d="M7247 3622 c7 -4 10 -17 6 -30 -6 -26 -12 -27 -27 -8 -7 9 -18 11
-31 6 -19 -7 -18 -9 8 -19 38 -15 74 -14 80 2 5 15 -21 57 -37 57 -7 0 -7 -3
1 -8z"/>
<path d="M1375 3590 c3 -5 10 -10 16 -10 5 0 9 5 9 10 0 6 -7 10 -16 10 -8 0
-12 -4 -9 -10z"/>
<path d="M6895 3590 c3 -5 8 -10 11 -10 2 0 4 5 4 10 0 6 -5 10 -11 10 -5 0
-7 -4 -4 -10z"/>
<path d="M7530 3567 c-31 -16 -39 -61 -14 -88 28 -31 40 -23 36 21 -3 30 0 41
12 46 21 8 66 -22 66 -44 0 -15 2 -15 10 -2 37 58 -38 103 -110 67z"/>
<path d="M1555 3560 c3 -5 8 -10 11 -10 2 0 4 5 4 10 0 6 -5 10 -11 10 -5 0
-7 -4 -4 -10z"/>
<path d="M1656 3557 c3 -10 9 -15 12 -12 3 3 0 11 -7 18 -10 9 -11 8 -5 -6z"/>
<path d="M1495 3550 c-3 -5 1 -10 9 -10 9 0 16 5 16 10 0 6 -4 10 -9 10 -6 0
-13 -4 -16 -10z"/>
<path d="M1401 3522 c-19 -35 -13 -48 11 -24 16 16 19 25 11 33 -8 8 -14 6
-22 -9z"/>
<path d="M3734 3506 c-34 -15 -53 -36 -32 -36 7 1 33 12 58 25 49 26 29 35
-26 11z"/>
<path d="M1559 3494 c-7 -9 -12 -29 -11 -45 3 -28 2 -29 -23 -19 -33 13 -38
13 -30 0 3 -5 15 -10 26 -10 10 0 19 -4 19 -9 0 -5 3 -16 6 -25 4 -9 -5 -25
-22 -41 -15 -14 -22 -25 -16 -25 6 0 22 10 36 23 21 19 24 31 24 84 -1 33 2
66 6 72 11 17 0 13 -15 -5z"/>
<path d="M7288 3489 c-19 -11 -25 -49 -8 -49 6 0 10 8 10 18 0 11 10 24 23 30
13 6 16 11 7 11 -8 0 -23 -4 -32 -10z"/>
<path d="M7066 3469 c-2 -8 -7 -25 -10 -39 -3 -14 -40 -61 -81 -105 -84 -88
-121 -135 -108 -135 8 0 127 115 195 187 20 22 51 75 46 77 -2 1 -11 8 -20 15
-15 11 -18 11 -22 0z"/>
<path d="M7171 3461 c-9 -16 -6 -20 15 -24 18 -3 22 -1 15 6 -16 16 -14 25 7
30 13 4 12 5 -5 6 -13 0 -27 -7 -32 -18z"/>
<path d="M3640 3434 c-19 -7 -53 -13 -75 -14 -37 -1 -39 -2 -21 -15 18 -14 18
-15 -8 -25 -15 -5 -40 -10 -56 -10 -16 0 -77 -25 -136 -55 -60 -30 -116 -55
-126 -55 -9 0 -22 9 -28 20 -14 25 -41 26 -71 0 l-24 -20 45 1 c25 0 61 -3 80
-6 36 -7 211 35 237 57 7 6 24 7 38 4 15 -4 24 -2 23 4 -2 6 46 32 106 58 60
26 111 53 114 60 5 16 -51 14 -98 -4z"/>
<path d="M7359 3431 c-36 -29 -33 -94 6 -126 18 -14 43 -24 60 -24 30 1 30 1
5 10 -32 12 -50 51 -43 95 7 42 14 47 49 34 38 -15 42 -5 5 14 -39 21 -54 20
-82 -3z"/>
<path d="M7193 3400 c-13 -5 -23 -11 -23 -14 0 -14 13 -36 22 -36 5 0 6 5 3
11 -4 5 1 19 11 30 19 21 18 22 -13 9z"/>
<path d="M2978 3298 c-25 -9 -39 -28 -20 -28 22 0 82 22 82 30 0 12 -27 12
-62 -2z"/>
<path d="M3400 3269 c-30 -16 -44 -26 -30 -23 29 8 100 42 100 49 0 9 -14 3
-70 -26z"/>
<path d="M3088 3213 c7 -3 16 -2 19 1 4 3 -2 6 -13 5 -11 0 -14 -3 -6 -6z"/>
<path d="M2390 3185 c87 -22 144 -29 136 -17 -6 10 -48 18 -146 27 l-45 4 55
-14z"/>
<path d="M2380 3109 c37 -23 168 -40 156 -20 -7 10 -131 41 -168 41 -20 0 -19
-3 12 -21z"/>
<path d="M1295 3080 c-3 -5 3 -10 15 -10 26 0 37 -27 21 -52 -11 -17 -10 -19
11 -16 29 4 36 42 12 69 -18 20 -49 25 -59 9z"/>
<path d="M2570 3076 c29 -18 90 -22 73 -5 -6 6 -30 13 -54 15 -43 5 -43 5 -19
-10z"/>
<path d="M6800 2933 c-8 -3 -28 -17 -43 -29 -16 -13 -39 -24 -52 -24 -39 0
-85 -12 -85 -23 0 -5 -20 -32 -45 -58 -25 -26 -45 -57 -45 -69 0 -24 6 -25 27
-5 9 9 23 13 34 10 13 -5 19 -1 19 10 0 9 -4 14 -9 10 -5 -3 -12 -1 -15 4 -4
5 3 12 14 16 15 5 19 12 15 25 -4 13 1 22 14 29 32 17 62 13 68 -9 8 -30 31
-25 25 5 -7 37 7 30 24 -12 12 -28 18 -33 25 -22 5 8 9 24 9 35 0 43 53 59
103 33 19 -11 23 -50 7 -80 -8 -13 -7 -19 0 -19 6 0 18 17 26 37 35 83 -36
166 -116 136z"/>
<path d="M7440 2748 c0 -32 -29 -45 -61 -28 -16 9 -20 9 -14 0 4 -6 18 -15 32
-21 46 -17 79 21 53 61 -8 12 -10 9 -10 -12z"/>
<path d="M2470 2686 c0 -2 14 -14 30 -26 17 -12 30 -19 30 -16 0 2 -13 14 -30
26 -16 12 -30 19 -30 16z"/>
<path d="M6465 2650 c-3 -5 1 -10 8 -13 8 -3 21 -20 29 -37 l16 -33 3 44 c4
42 3 44 -24 45 -15 1 -30 -2 -32 -6z"/>
<path d="M6385 2600 c-3 -6 1 -7 9 -4 18 7 21 14 7 14 -6 0 -13 -4 -16 -10z"/>
<path d="M6679 2528 c-12 -23 -12 -23 10 -4 23 21 26 26 11 26 -5 0 -15 -10
-21 -22z"/>
<path d="M6294 2499 c-20 -16 -40 -29 -43 -29 -3 0 -11 -10 -16 -22 -6 -14
-19 -23 -32 -23 -21 0 -61 -40 -51 -51 10 -9 160 98 165 117 5 18 9 16 38 -16
44 -50 84 -75 120 -75 l30 1 -27 15 c-15 8 -32 23 -38 34 -6 11 -26 27 -45 35
-19 7 -35 18 -35 23 0 23 -31 19 -66 -9z"/>
<path d="M3894 2366 c39 -20 79 -45 90 -55 12 -11 38 -26 59 -35 32 -13 37
-13 37 0 0 19 12 18 68 -6 71 -31 77 -36 77 -56 0 -24 -21 -21 -92 11 -44 20
-52 21 -57 8 -10 -26 -92 -7 -161 38 -33 21 -67 39 -75 39 -9 0 -20 4 -26 10
-5 5 -15 6 -22 1 -8 -5 9 -21 50 -48 68 -45 121 -65 211 -82 32 -6 72 -17 90
-25 73 -32 175 -65 222 -71 28 -4 73 -18 102 -31 87 -40 207 -64 323 -64 59 0
110 -4 116 -10 12 -12 146 -16 194 -5 19 4 51 15 70 25 19 10 50 24 68 30 18
7 31 15 28 17 -3 3 -30 -4 -60 -15 -48 -17 -56 -18 -56 -5 0 10 -5 13 -17 8
-10 -4 -27 -9 -38 -11 -11 -2 -26 -11 -32 -21 -11 -15 -20 -15 -80 -4 -38 6
-112 16 -166 21 -145 14 -216 29 -272 57 -101 51 -235 87 -235 62 0 -13 -54
-11 -68 3 -25 25 -13 38 33 38 52 0 64 25 18 36 -16 4 -54 20 -86 37 -36 18
-78 30 -107 32 -29 1 -62 11 -82 24 -47 30 -132 69 -165 76 -15 4 3 -10 41
-29z"/>
<path d="M6085 2361 c-24 -5 -31 -12 -33 -35 -2 -17 -11 -30 -21 -33 -10 -2
-23 -19 -29 -37 -7 -18 -21 -41 -32 -51 -19 -18 -22 -18 -56 -1 -30 14 -34 19
-24 31 9 11 17 12 30 5 24 -13 30 -13 30 2 0 6 11 26 26 45 14 18 23 33 20 33
-3 0 -35 -20 -72 -45 -36 -25 -69 -45 -74 -45 -5 0 -21 -11 -36 -25 -15 -14
-34 -23 -42 -20 -8 3 -20 0 -28 -5 -7 -6 -34 -14 -61 -17 -26 -2 -61 -11 -78
-19 l-30 -14 30 6 c17 4 54 8 83 10 47 4 52 2 52 -16 0 -11 -3 -19 -7 -18 -5
1 -21 -2 -37 -7 -18 -5 -31 -4 -35 3 -4 6 -17 9 -29 5 -12 -3 -19 -9 -16 -14
3 -5 10 -7 15 -3 6 3 19 -2 29 -11 12 -11 20 -13 25 -5 4 6 20 8 39 4 32 -6
33 -5 40 36 3 23 13 43 22 47 8 3 49 0 90 -7 62 -11 74 -16 68 -29 -4 -9 -9
-27 -11 -41 -12 -67 -49 -87 -106 -59 -17 8 -15 4 7 -16 24 -22 36 -26 65 -21
49 8 69 32 82 101 24 132 68 219 129 250 47 24 39 30 -25 16z"/>
<path d="M5580 2280 c0 -5 5 -10 11 -10 5 0 7 5 4 10 -3 6 -8 10 -11 10 -2 0
-4 -4 -4 -10z"/>
<path d="M5520 2260 c-18 -12 -2 -12 25 0 13 6 15 9 5 9 -8 0 -22 -4 -30 -9z"/>
<path d="M3051 2244 c25 -30 153 -107 281 -169 135 -64 303 -128 321 -122 6 2
-18 14 -54 27 -207 75 -363 149 -477 224 -46 30 -78 48 -71 40z"/>
<path d="M5260 2249 c-35 -10 60 -10 120 0 42 7 40 8 -25 8 -38 0 -81 -4 -95
-8z"/>
<path d="M5720 2210 c0 -5 6 -10 14 -10 8 0 18 5 21 10 3 6 -3 10 -14 10 -12
0 -21 -4 -21 -10z"/>
<path d="M4555 2170 c28 -11 59 -20 70 -19 11 0 -7 9 -40 20 -77 24 -94 24
-30 -1z"/>
<path d="M5095 2179 c22 -5 54 -14 72 -20 19 -6 54 -7 85 -2 l53 8 -80 6 c-44
3 -100 9 -125 12 l-45 6 40 -10z"/>
<path d="M5488 2183 c7 -3 16 -2 19 1 4 3 -2 6 -13 5 -11 0 -14 -3 -6 -6z"/>
<path d="M5438 2159 c28 -11 20 -29 -13 -29 -13 0 -27 -5 -31 -11 -8 -14 44
-3 63 13 17 14 4 38 -21 37 -20 0 -20 -1 2 -10z"/>
<path d="M3887 2149 c7 -7 15 -10 18 -7 3 3 -2 9 -12 12 -14 6 -15 5 -6 -5z"/>
<path d="M4950 2130 c0 -5 7 -10 16 -10 9 0 27 -11 40 -25 20 -22 32 -25 87
-25 39 0 71 5 83 14 18 14 18 15 1 21 -9 4 -23 2 -31 -4 -13 -11 -98 7 -138
29 -23 13 -58 13 -58 0z"/>
<path d="M3980 2120 c8 -5 20 -10 25 -10 6 0 3 5 -5 10 -8 5 -19 10 -25 10 -5
0 -3 -5 5 -10z"/>
<path d="M4680 2126 c0 -2 7 -7 16 -10 8 -3 12 -2 9 4 -6 10 -25 14 -25 6z"/>
<path d="M4067 2109 c7 -7 15 -10 18 -7 3 3 -2 9 -12 12 -14 6 -15 5 -6 -5z"/>
<path d="M5240 2110 c-13 -9 -13 -10 0 -9 8 0 24 4 35 9 l20 9 -20 0 c-11 0
-27 -4 -35 -9z"/>
<path d="M5471 2109 c-13 -5 -22 -11 -20 -14 8 -7 49 7 49 16 0 5 -1 9 -2 8
-2 0 -14 -5 -27 -10z"/>
<path d="M5308 2084 c-39 -21 -35 -28 5 -8 37 19 44 24 31 24 -5 -1 -21 -8
-36 -16z"/>
<path d="M5390 2070 c-9 -6 -10 -10 -3 -10 6 0 15 5 18 10 8 12 4 12 -15 0z"/>
<path d="M5490 2060 c-14 -11 -33 -20 -42 -20 -9 0 -20 -4 -23 -10 -3 -5 -4
-10 -1 -10 14 0 116 43 121 51 11 17 -30 9 -55 -11z"/>
<path d="M5785 2060 c3 -5 8 -10 11 -10 2 0 4 5 4 10 0 6 -5 10 -11 10 -5 0
-7 -4 -4 -10z"/>
<path d="M5338 1997 c-16 -18 -38 -41 -49 -52 -10 -12 -19 -29 -19 -39 0 -10
-8 -20 -19 -23 -10 -3 -31 -27 -46 -54 -28 -52 -34 -56 -53 -37 -9 9 -19 7
-43 -11 -21 -15 -38 -21 -55 -17 -19 5 -22 3 -18 -11 5 -14 4 -15 -4 -4 -6 8
-8 21 -4 30 4 13 2 13 -15 -2 -17 -15 -22 -16 -32 -3 -7 8 -26 18 -42 21 -16
4 -33 14 -38 23 -9 15 -12 15 -33 -5 -19 -18 -31 -20 -73 -16 -37 4 -47 3 -39
-6 6 -6 56 -16 112 -20 74 -7 116 -16 158 -35 68 -31 83 -32 133 -6 47 23 87
70 112 128 11 24 45 70 77 102 51 51 56 59 39 64 -14 3 -29 -5 -49 -27z"/>
<path d="M6271 1995 c-1 -26 9 -40 34 -48 19 -7 18 -6 -2 10 -11 10 -23 27
-26 38 l-5 20 -1 -20z"/>
<path d="M4635 1776 c-29 -12 -153 -30 -205 -29 -14 1 -53 5 -87 10 -35 5 -63
6 -63 2 0 -13 75 -42 121 -47 27 -2 77 4 125 16 81 21 181 60 154 61 -8 0 -28
-6 -45 -13z"/>
</g>
</svg>
